<svg xmlns="http://www.w3.org/2000/svg" viewBox="0 0 4800 2700"><defs><style>.cls-1{fill:#f9a39f;}.cls-2{fill:#f76f6b;}.cls-13,.cls-14,.cls-17,.cls-3{fill:#1f398e;}.cls-4{fill:#bbd8f9;}.cls-15,.cls-16,.cls-5{fill:#edf4ff;}.cls-6{fill:#1651da;}.cls-7,.cls-8,.cls-9{fill:none;stroke-miterlimit:10;stroke-width:8.63px;}.cls-7{stroke:#58e9d2;}.cls-8{stroke:#f47384;}.cls-9{stroke:#1651da;}.cls-10{fill:#fff;}.cls-11{fill:#d7e9ff;}.cls-12{fill:#31536c;}.cls-13{font-size:40.52px;}.cls-13,.cls-14,.cls-15,.cls-16,.cls-17{font-family:OpenSans-Bold, Open Sans;font-weight:700;}.cls-14{font-size:99.65px;}.cls-15{font-size:72.17px;}.cls-16{font-size:48.62px;}.cls-17{font-size:138.82px;}.cls-18{isolation:isolate;}</style></defs><g id="Background"><rect class="cls-1" width="4800" height="2700"/></g><g id="Layer_5" data-name="Layer 5"><polygon class="cls-2" points="71.13 1713.21 71.13 1888.87 1476.4 2705.89 4801.68 2705.89 4801.68 2436.28 4152.15 2056.36 2718.28 1325.13 1709.26 740.96 71.13 1713.21"/><path class="cls-3" d="M990.84,2168.71V2205a92.88,92.88,0,0,1-16.65,4.21,109.07,109.07,0,0,1-35.92-.37v-36.31a109.61,109.61,0,0,0,35.92.4A92.42,92.42,0,0,0,990.84,2168.71Z"/><path class="cls-3" d="M2113.68,1502.42l-.1,36.3c0,9.39-6.2,18.77-18.54,25.94l.11-36.3C2107.48,1521.19,2113.65,1511.81,2113.68,1502.42Z"/><path class="cls-3" d="M74.73,1700.73l.1-36.29c0,9.51,6.25,19,18.82,26.3l-.1,36.29C81,1719.77,74.7,1710.25,74.73,1700.73Z"/><polygon class="cls-4" points="2095.15 1528.36 2095.04 1564.66 1002.35 2199.66 1002.46 2163.36 2095.15 1528.36"/><polygon class="cls-3" points="912.27 2163.37 912.17 2199.66 93.55 1727.03 93.65 1690.74 912.27 2163.37"/><path class="cls-4" d="M1002.46,2163.37l-.11,36.29a70.39,70.39,0,0,1-11.51,5.3,92.88,92.88,0,0,1-16.65,4.21,109.07,109.07,0,0,1-35.92-.37q-4.34-.78-8.46-1.92a75,75,0,0,1-17.64-7.22l.1-36.29a75.4,75.4,0,0,0,17.54,7.18c2.75.76,5.57,1.42,8.46,1.94a109.61,109.61,0,0,0,35.92.4,92.42,92.42,0,0,0,16.65-4.18A70.48,70.48,0,0,0,1002.46,2163.37Z"/><path class="cls-5" d="M2094.86,1476.12c25,14.43,25.11,37.81.29,52.24l-1092.69,635c-24.83,14.43-65.21,14.43-90.19,0L93.65,1690.74c-25-14.43-25.11-37.81-.29-52.24l1092.69-635c24.83-14.43,65.21-14.43,90.19,0Z"/><path class="cls-4" d="M1231.09,996.39c16.39,0,31.77,3.66,43.29,10.32L2093,1479.34c10.93,6.31,17,14.47,17,23s-5.91,16.55-16.69,22.81l-1092.69,635c-11.45,6.65-26.78,10.31-43.17,10.31s-31.77-3.66-43.29-10.32L95.51,1687.52c-10.93-6.31-17-14.47-17-23s5.91-16.56,16.69-22.82l1092.69-635c11.45-6.65,26.78-10.31,43.17-10.31m0-3.71c-16.32,0-32.62,3.6-45,10.82L93.36,1638.5c-24.82,14.43-24.69,37.81.29,52.24l818.62,472.63c12.49,7.21,28.83,10.81,45.15,10.81s32.62-3.6,45-10.82l1092.69-635c24.82-14.43,24.69-37.81-.29-52.24l-818.62-472.63c-12.49-7.21-28.83-10.81-45.15-10.81Z"/><path class="cls-6" d="M116.42,1651.91l1090.4-629.55c9.93-5.73,25-6.35,33.55-1.39l821.9,474.53c8.6,5,7.52,13.64-2.41,19.37L969.47,2144.41c-9.93,5.74-25,6.36-33.55,1.39L114,1671.28C105.41,1666.31,106.49,1657.64,116.42,1651.91Z"/><path class="cls-3" d="M1225.79,1021.33h0c5,0,9.53,1,12.72,2.86l821.91,474.53c1.8,1,3.95,2.78,3.95,5.2s-2.38,5.44-6.36,7.74L967.61,2141.2a35.19,35.19,0,0,1-17.12,4.25c-5,0-9.53-1-12.72-2.86l-821.9-474.53c-1.81-1-4-2.79-4-5.2s2.37-5.44,6.35-7.74l1090.4-629.54a35.22,35.22,0,0,1,17.12-4.25m0-3.71a39,39,0,0,0-19,4.74L116.42,1651.91c-9.93,5.73-11,14.4-2.41,19.37L935.92,2145.8c3.89,2.25,9.11,3.36,14.57,3.36a39,39,0,0,0,19-4.75l1090.39-629.54c9.93-5.73,11-14.4,2.41-19.37L1240.37,1021c-3.9-2.25-9.11-3.35-14.58-3.35Z"/><path class="cls-5" d="M488.3,1945.49l-35.19-20.32c-2.67-1.54-4.82-5.66-4.82-9.21h0c0-3.55,2.15-5.18,4.82-3.64l35.19,20.32c2.67,1.54,4.82,5.66,4.82,9.21h0C493.12,1945.4,491,1947,488.3,1945.49Z"/><path class="cls-5" d="M916.18,2068.48l-660-381c-22.88-13.21-20-36.29,6.41-51.54l689.65-398.17,742.86,428.89-689.65,398.17C979,2080,939.06,2081.69,916.18,2068.48Z"/><ellipse class="cls-7" cx="1060.4" cy="1606.06" rx="172.86" ry="299.41" transform="translate(-552.3 2656.34) rotate(-89.64)"/><ellipse class="cls-8" cx="745.66" cy="1664.15" rx="172.86" ry="299.41" transform="translate(-923.14 2399.33) rotate(-89.64)"/><ellipse class="cls-9" cx="956.5" cy="1785.87" rx="172.86" ry="299.41" transform="translate(-835.36 2731.12) rotate(-89.64)"/><path class="cls-3" d="M1694.68,1666.38,952.23,1237.72l42.1-24.31c26.42-15.25,66.38-16.91,89.26-3.7l659.6,380.82c22.88,13.21,20,36.29-6.41,51.54Z"/><ellipse class="cls-5" cx="1570.84" cy="1545.78" rx="14.07" ry="24.37" transform="translate(15.2 3106.86) rotate(-89.64)"/><ellipse class="cls-5" cx="1625.19" cy="1577.16" rx="14.07" ry="24.37" transform="translate(37.84 3192.4) rotate(-89.64)"/><ellipse class="cls-5" cx="1679.55" cy="1608.54" rx="14.07" ry="24.37" transform="translate(60.47 3277.94) rotate(-89.64)"/><path class="cls-5" d="M1559.5,1449l-447.25-258.22c-19-11-16.62-30.13,5.32-42.8l73.36-42.36,516.07,298-73.36,42.35C1611.7,1458.59,1578.5,1460,1559.5,1449Z"/><path class="cls-3" d="M1707,1403.57l-516.07-298,13.39-7.73c21.94-12.66,55.13-14,74.14-3.07L1725.71,1353c19,11,16.62,30.14-5.32,42.81Z"/><polygon class="cls-3" points="1191.38 1177.76 1166.07 1163.15 1191.2 1148.64 1216.52 1163.25 1191.38 1177.76"/><polygon class="cls-3" points="1230.51 1200.35 1205.19 1185.73 1230.32 1171.23 1255.64 1185.84 1230.51 1200.35"/><polygon class="cls-3" points="1269.63 1222.94 1244.31 1208.32 1269.45 1193.81 1294.76 1208.43 1269.63 1222.94"/><polygon class="cls-3" points="1308.75 1245.53 1283.44 1230.91 1308.57 1216.4 1333.88 1231.02 1308.75 1245.53"/><polygon class="cls-3" points="1347.87 1268.11 1322.56 1253.5 1347.69 1238.99 1373.01 1253.6 1347.87 1268.11"/><polygon class="cls-3" points="1387 1290.7 1361.68 1276.08 1386.81 1261.58 1412.13 1276.19 1387 1290.7"/><polygon class="cls-3" points="1426.12 1313.29 1400.8 1298.67 1425.93 1284.16 1451.25 1298.78 1426.12 1313.29"/><polygon class="cls-3" points="1465.24 1335.87 1439.93 1321.26 1465.06 1306.75 1490.37 1321.37 1465.24 1335.87"/><polygon class="cls-3" points="1504.36 1358.46 1479.05 1343.85 1504.18 1329.34 1529.49 1343.95 1504.36 1358.46"/><polygon class="cls-3" points="1543.48 1381.05 1518.17 1366.43 1543.3 1351.92 1568.62 1366.54 1543.48 1381.05"/><ellipse class="cls-5" cx="1608.42" cy="1315.66" rx="10.3" ry="17.84" transform="translate(282.67 2915.77) rotate(-89.64)"/><ellipse class="cls-5" cx="1647.54" cy="1338.24" rx="10.3" ry="17.84" transform="translate(298.96 2977.33) rotate(-89.64)"/><ellipse class="cls-5" cx="1686.67" cy="1360.83" rx="10.3" ry="17.84" transform="translate(315.25 3038.9) rotate(-89.64)"/><path class="cls-3" d="M1311.42,2141.45l.1,34.4c0,11.15,7.37,22.3,22,30.81l-.1-34.39C1318.79,2163.75,1311.46,2152.61,1311.42,2141.45Z"/><path class="cls-3" d="M2450.7,2412.2l-.1-34.39c0,11.3-7.42,22.62-22.36,31.24l.1,34.4C2443.27,2434.82,2450.73,2423.5,2450.7,2412.2Z"/><polygon class="cls-3" points="1333.44 2172.27 1333.54 2206.66 2030.15 2611.48 2030.05 2577.09 1333.44 2172.27"/><polygon class="cls-4" points="2137.19 2577.09 2137.29 2611.49 2428.34 2443.45 2428.24 2409.05 2137.19 2577.09"/><path class="cls-4" d="M2137.28,2611.49a95.84,95.84,0,0,1-29.81,10.63c-1.35.25-2.71.49-4.08.69a129.66,129.66,0,0,1-38.29.2,116.79,116.79,0,0,1-13.54-2.79,89.49,89.49,0,0,1-21.41-8.73l-.1-34.4a89.07,89.07,0,0,0,21.51,8.76,114.7,114.7,0,0,0,13.54,2.77,129,129,0,0,0,38.29-.21c1.37-.21,2.73-.44,4.08-.7a95.56,95.56,0,0,0,29.72-10.62Z"/><path class="cls-5" d="M1333.79,2110.21c-29.68,17.14-29.84,44.92-.35,62.06l696.61,404.82c29.49,17.14,77.46,17.14,107.14,0l291-168c29.68-17.13,29.84-44.92.35-62.05L1732,1942.17c-29.49-17.14-77.46-17.14-107.14,0Z"/><path class="cls-4" d="M1678.48,1932.34h0c19.71,0,38.17,4.42,52,12.45l696.61,404.82c13.24,7.7,20.52,17.75,20.51,28.3s-7.42,20.77-20.85,28.52l-291.05,168c-13.91,8-32.42,12.45-52.13,12.45s-38.17-4.42-52-12.44L1335,2169.65c-13.24-7.69-20.52-17.75-20.51-28.3s7.42-20.77,20.85-28.52l291-168c13.91-8,32.42-12.45,52.13-12.45m0-3c-19.39,0-38.8,4.28-53.64,12.85l-291,168c-29.68,17.14-29.84,44.92-.35,62.06l696.61,404.82c14.74,8.57,34.11,12.86,53.5,12.86s38.8-4.29,53.64-12.86l291-168c29.68-17.13,29.84-44.92.35-62.05L1732,1942.17c-14.75-8.57-34.11-12.85-53.5-12.85Z"/><path class="cls-6" d="M1350.44,2156.46l696.81,402.31c18,10.37,47.32,10.31,65.42-.14L2404,2390.42c18.11-10.45,18.21-27.4.24-37.77l-696.81-402.31c-18-10.37-47.32-10.31-65.42.14l-291.35,168.21C1332.57,2129.14,1332.47,2146.09,1350.44,2156.46Z"/><path class="cls-3" d="M1675,1944.9c11.91,0,23,2.64,31.34,7.44l696.81,402.3c7.91,4.56,12.26,10.52,12.26,16.77s-4.44,12.36-12.5,17l-291.35,168.21c-8.45,4.88-19.74,7.57-31.78,7.57s-23-2.64-31.34-7.43l-696.81-402.31c-7.91-4.56-12.26-10.52-12.26-16.77s4.44-12.36,12.5-17l291.35-168.21c8.45-4.88,19.74-7.57,31.78-7.57m0-2.3c-11.91,0-23.84,2.63-32.93,7.88l-291.35,168.21c-18.11,10.45-18.21,27.4-.24,37.77l696.81,402.31c8.94,5.16,20.7,7.74,32.49,7.74s23.84-2.63,32.93-7.88L2404,2390.42c18.11-10.45,18.21-27.4.24-37.77l-696.81-402.31c-8.94-5.16-20.7-7.74-32.49-7.74Z"/><path class="cls-3" d="M1406.23,2086.62a99.72,99.72,0,0,0,29.86,4.35c15.88,0,31.79-3.56,44-10.59l90.56-52.28c20.06-11.58,23.68-29,10.8-42.62Z"/><path class="cls-10" d="M2263.36,2526.32l33.9-19.58c2.1-1.21,3.81-4.46,3.81-7.26h0c0-2.8-1.71-4.08-3.81-2.87l-33.9,19.57c-2.1,1.22-3.8,4.47-3.8,7.27h0C2259.56,2526.24,2261.26,2527.53,2263.36,2526.32Z"/><path class="cls-3" d="M2103.39,2588.41v34.4a129.66,129.66,0,0,1-38.29.2v-34.39A129,129,0,0,0,2103.39,2588.41Z"/><polygon class="cls-5" points="1993.61 2162.82 1729.72 2315.17 1665.93 2278.34 1672.36 2274.63 1729.77 2307.77 1980.8 2162.84 1923.39 2129.7 1929.82 2125.99 1993.61 2162.82"/><polygon class="cls-5" points="2035.48 2212 1814.91 2339.34 1751.12 2302.51 1757.55 2298.8 1814.96 2331.95 2022.67 2212.03 1965.26 2178.88 1971.69 2175.17 2035.48 2212"/><polygon class="cls-5" points="2081.3 2257.21 1893.22 2365.8 1829.43 2328.97 1835.86 2325.26 1893.27 2358.4 2068.49 2257.24 2011.08 2224.09 2017.51 2220.38 2081.3 2257.21"/><polygon class="cls-5" points="2125.64 2303.84 1973.99 2391.4 1910.2 2354.57 1916.63 2350.86 1974.04 2384 2112.83 2303.87 2055.42 2270.73 2061.85 2267.02 2125.64 2303.84"/><polygon class="cls-5" points="1775.34 2031.61 1492.21 2195.08 1482.99 2189.75 1766.11 2026.29 1775.34 2031.61"/><polygon class="cls-5" points="1793.59 2042.15 1510.47 2205.61 1501.24 2200.29 1784.37 2036.83 1793.59 2042.15"/><polygon class="cls-5" points="1721.29 2104.97 1528.72 2216.15 1519.49 2210.83 1712.07 2099.65 1721.29 2104.97"/><polygon class="cls-5" points="1610.24 2190.16 1546.97 2226.69 1537.75 2221.37 1601.02 2184.84 1610.24 2190.16"/><ellipse class="cls-5" cx="1688.71" cy="1990.95" rx="22.7" ry="13.1" transform="translate(-12.49 10.66) rotate(-0.36)"/><path class="cls-3" d="M3219.28,2669.29c1.39.66,2.82,1.3,4.27,1.91C3222.1,2670.6,3220.67,2670,3219.28,2669.29Z"/><path class="cls-3" d="M3223.56,2671.21c1.89.79,3.82,1.52,5.8,2.21Q3226.39,2672.4,3223.56,2671.21Z"/><path class="cls-3" d="M3229.36,2673.42c1.07.37,2.17.73,3.27,1.08C3231.52,2674.15,3230.44,2673.79,3229.36,2673.42Z"/><path class="cls-3" d="M4242.53,2149.34,3369.85,2653V2476.11H3204.4V2661L1913.32,1915.58c-17.35-10-25.38-23.57-24.67-37.67h-.11v-61L1996,1831.11l813-469.22c42.48-24.53,106.73-27.19,143.51-6L3334,1576.2l81.51,47.06,684.35,395.11,177.74,23.46v59.25C4278.34,2117.77,4266.43,2135.55,4242.53,2149.34Z"/><path class="cls-3" d="M3415.55,1623.26l-103.18,852.85h-108V2661L1913.32,1915.58c-17.35-10-25.38-23.57-24.67-37.67h-.11v-61L1996,1831.11l441.81-254.91H3334Z"/><path class="cls-4" d="M3312.37,2476.11l-24.69,204.08q-6,.39-11.87.39c-1,0-2,0-3.07,0s-2,0-3-.08h-.28c-.87,0-1.74-.07-2.6-.12s-1.59-.08-2.39-.14-1.6-.11-2.39-.18l-.59-.05-2-.19c-.38,0-.76-.07-1.13-.12-.56,0-1.11-.11-1.66-.18-.36,0-.73-.08-1.09-.13l-1.56-.2c-.8-.11-1.61-.22-2.4-.35h0c-.85-.13-1.7-.26-2.54-.41l-.53-.09c-.82-.14-1.64-.29-2.45-.45l-.32-.06c-.93-.18-1.87-.38-2.79-.58q-3.35-.72-6.59-1.62l-1.61-.45-.09,0-.24-.07q-1.23-.36-2.43-.75c-.89-.28-1.76-.57-2.63-.87-1.48-.52-2.94-1.06-4.37-1.63l-1.43-.58h0c-1.45-.61-2.88-1.25-4.27-1.91s-2.76-1.37-4.08-2.09l-1.58-.89-9.22-5.32V2476.11Z"/><path class="cls-4" d="M3219.28,2669.29c1.39.66,2.82,1.3,4.27,1.91C3222.1,2670.6,3220.67,2670,3219.28,2669.29Z"/><path class="cls-4" d="M3223.56,2671.21c1.89.79,3.82,1.52,5.8,2.21Q3226.39,2672.4,3223.56,2671.21Z"/><path class="cls-4" d="M3239.52,2676.42l.24.06Z"/><path class="cls-4" d="M3236.74,2675.69c.92.25,1.85.5,2.78.73C3238.59,2676.19,3237.66,2675.94,3236.74,2675.69Z"/><path class="cls-4" d="M3242.36,2677.08c1.23.27,2.48.53,3.73.78h0l-.32-.06c-.93-.18-1.87-.37-2.79-.58l-1.06-.23a2.22,2.22,0,0,1-.37-.09Z"/><path class="cls-4" d="M3246.09,2677.86c.72.14,1.44.27,2.17.39C3247.53,2678.12,3246.81,2678,3246.09,2677.86Z"/><path class="cls-4" d="M3248.26,2678.25l1.2.21-.42-.07-.53-.09Z"/><path class="cls-4" d="M3369.85,2476.11V2653l-12.72,7.34a138.75,138.75,0,0,1-24,10.85,175.87,175.87,0,0,1-49,9.24,164.18,164.18,0,0,1-34.6-2l2.12.34h0c.8.13,1.6.24,2.4.35l1.56.2c.36.05.73.1,1.09.13.55.07,1.1.13,1.66.18.37.05.75.09,1.13.12l2,.19.59.05c.79.07,1.59.13,2.39.18s1.59.1,2.39.14,1.73.09,2.6.12h.28c1,0,2,.06,3,.08s2,0,3.07,0c2.74,0,5.5-.06,8.25-.19,1.21,0,2.41-.12,3.62-.2l18-148.93,6.67-55.15Z"/><path class="cls-4" d="M3234.75,2675.14l2,.55-.38-.1Z"/><path class="cls-4" d="M3229.36,2673.42c1.07.37,2.17.73,3.27,1.08C3231.52,2674.15,3230.44,2673.79,3229.36,2673.42Z"/><path class="cls-3" d="M3333.09,2531.26v139.95a175.87,175.87,0,0,1-49,9.24V2531.26Z"/><path class="cls-11" d="M4230.93,1996.61,2970,1268.17c-48.81-28.18-88.39-103.8-88.39-168.89V110.1c0-65.1,39.58-95,88.39-66.83l1261,728.44c48.82,28.18,88.39,103.8,88.39,168.89v989.19C4319.32,1994.88,4279.75,2024.79,4230.93,1996.61Z"/><path class="cls-6" d="M4242.32,1945.77l-1247.5-720.58c-39.28-25-63.58-74.86-63.58-125.91v-994a15.67,15.67,0,0,1,23.6-13.49l2.77,1.61L4206.1,814.69c46.77,27,63.58,74.86,63.58,125.91v991.67a16.92,16.92,0,0,1-25.3,14.68Z"/><path class="cls-3" d="M4206.1,814.69,2957.61,93.41l-2.77-1.61a15.67,15.67,0,0,0-23.6,13.5v994c0,51,24.3,100.94,63.58,125.91l1247.5,720.58,2.06,1.18a16.92,16.92,0,0,0,25.3-14.68V940.6C4269.68,889.55,4252.87,841.65,4206.1,814.69Zm53.65,1117.58a7,7,0,0,1-7,7,6.9,6.9,0,0,1-3.43-.94L2999.79,1216.59c-35.47-22.55-58.62-68.69-58.62-117.31v-994a5.72,5.72,0,0,1,8.65-4.94L4201.13,823.28c48.45,27.93,58.62,79.22,58.62,117.32Z"/><path class="cls-3" d="M4256,758.4,2995,30c-19.32-11.15-37.18-13.2-51.73-7.59-1.85.72-26.49,13.81-28.23,14.77l-.08.06c15.06-7.32,34.16-6,55,6.07l1261,728.44c48.82,28.18,88.39,103.8,88.39,168.89v989.19c0,40.62-15.41,67.53-38.87,75.18,1.91.11,4.3-.64,7.75-2.63,1.11-.65,27.86-15.74,28.93-16.49,16.79-11.76,27.25-35.92,27.25-69.37V927.29C4344.38,862.2,4304.8,786.58,4256,758.4Z"/><path class="cls-12" d="M4256,758.4,2995,30c-19.32-11.15-37.18-13.2-51.73-7.59-1.85.72-26.49,13.81-28.23,14.77l-.08.06c15.06-7.32,34.16-6,55,6.07l1261,728.44Z"/><path class="cls-4" d="M4235.17,769.59,2974.23,41.15c-20-11.56-38.42-13.21-53.24-6.8,12.64-2,27.17,1,42.63,10L4224.57,772.77C4273.39,801,4313,876.57,4313,941.66v989.18c0,38.4-13.83,64.42-35.15,73.63,27.27-4.32,45.76-32.34,45.76-76.81V938.48C4323.57,873.39,4284,797.77,4235.17,769.59Z"/><path class="cls-5" d="M3213.62,2605.4l-1300.3-750.73c-36.78-21.24-32.17-58.33,10.3-82.85l885.41-511c42.47-24.53,106.73-27.19,143.51-6l1300.3,750.73c36.78,21.23,32.17,58.33-10.31,82.85l-885.4,511C3314.65,2624,3250.4,2626.63,3213.62,2605.4Z"/><path class="cls-4" d="M4242.53,2066.16l-885.4,511c-42.48,24.53-106.73,27.19-143.51,6L1913.32,1832.4c-12.06-7-19.58-15.64-22.87-25-5.75,17.4,1.59,35,24.33,48.14l1300.3,750.72c35.32,20.4,99.57,17.73,142.05-6.79l885.4-511c28.55-16.48,39.91-38.63,33.17-57.84C4271.52,2043.26,4260.43,2055.83,4242.53,2066.16Z"/><path class="cls-3" d="M2395.65,1634.53l-58.84-34c-4.72-2.73-4.13-7.5,1.33-10.65l69.44-40.09c5.46-3.15,13.71-3.49,18.43-.76l58.83,34c4.73,2.73,4.13,7.5-1.32,10.65l-69.44,40.09C2408.62,1636.92,2400.37,1637.26,2395.65,1634.53Z"/><path class="cls-3" d="M2486.5,1687l-58.83-34c-4.72-2.73-4.13-7.49,1.32-10.64l69.45-40.09c5.45-3.15,13.7-3.49,18.43-.76l58.83,34c4.72,2.73,4.13,7.49-1.32,10.64l-69.45,40.09C2499.48,1689.37,2491.23,1689.72,2486.5,1687Z"/><path class="cls-3" d="M2577.36,1739.45l-58.83-34c-4.73-2.73-4.13-7.49,1.32-10.64l69.44-40.1c5.46-3.15,13.71-3.49,18.43-.76l58.84,34c4.72,2.72,4.13,7.49-1.33,10.64l-69.44,40.09C2590.34,1741.83,2582.08,1742.17,2577.36,1739.45Z"/><path class="cls-3" d="M2703,1696.13l-58.83-34c-4.73-2.73-4.14-7.49,1.32-10.64l58.29-33.66c5.46-3.15,13.71-3.49,18.43-.76l58.84,34c4.72,2.72,4.13,7.49-1.33,10.63l-58.29,33.66C2716,1698.51,2707.74,1698.85,2703,1696.13Z"/><path class="cls-3" d="M2793.88,1748.58l-58.84-34c-4.72-2.72-4.13-7.49,1.33-10.64l58.29-33.65c5.45-3.15,13.71-3.49,18.43-.77l58.83,34c4.73,2.73,4.13,7.49-1.32,10.64l-58.3,33.66C2806.85,1751,2798.6,1751.31,2793.88,1748.58Z"/><path class="cls-3" d="M2884.73,1801l-58.83-34c-4.73-2.73-4.13-7.49,1.32-10.64l58.29-33.66c5.46-3.15,13.71-3.49,18.43-.76l58.84,34c4.72,2.72,4.13,7.49-1.33,10.64l-58.29,33.65C2897.71,1803.42,2889.45,1803.76,2884.73,1801Z"/><path class="cls-3" d="M2975.59,1853.49l-58.84-34c-4.72-2.73-4.13-7.5,1.33-10.65l58.29-33.65c5.46-3.15,13.71-3.49,18.43-.77l58.83,34c4.73,2.73,4.14,7.49-1.32,10.64L2994,1852.73C2988.56,1855.88,2980.31,1856.22,2975.59,1853.49Z"/><path class="cls-3" d="M3066.44,1906l-58.83-34c-4.72-2.73-4.13-7.49,1.32-10.64l58.3-33.65c5.45-3.15,13.7-3.5,18.43-.77l58.83,34c4.72,2.73,4.13,7.49-1.32,10.64l-58.3,33.65C3079.42,1908.33,3071.17,1908.68,3066.44,1906Z"/><path class="cls-3" d="M3157.3,1958.4l-58.83-34c-4.73-2.73-4.13-7.49,1.32-10.64l58.29-33.66c5.46-3.15,13.71-3.49,18.43-.76l58.84,34c4.72,2.73,4.13,7.49-1.33,10.64l-58.29,33.66C3170.27,1960.79,3162,1961.13,3157.3,1958.4Z"/><path class="cls-3" d="M3248.16,2010.86l-58.84-34c-4.72-2.73-4.13-7.49,1.33-10.64l58.29-33.65c5.45-3.15,13.71-3.5,18.43-.77l58.83,34c4.73,2.73,4.13,7.49-1.32,10.64l-58.29,33.66C3261.13,2013.24,3252.88,2013.59,3248.16,2010.86Z"/><path class="cls-3" d="M3339,2063.32l-58.83-34c-4.73-2.73-4.13-7.49,1.32-10.64l58.3-33.66c5.45-3.15,13.7-3.49,18.43-.76l58.83,34c4.72,2.72,4.13,7.49-1.32,10.63l-58.3,33.66C3352,2065.7,3343.73,2066,3339,2063.32Z"/><path class="cls-3" d="M3429.87,2115.77l-58.83-34c-4.73-2.72-4.14-7.49,1.32-10.64l58.29-33.65c5.46-3.15,13.71-3.49,18.43-.77l58.83,34c4.73,2.73,4.14,7.49-1.32,10.64L3448.3,2115C3442.84,2118.16,3434.59,2118.5,3429.87,2115.77Z"/><path class="cls-3" d="M3520.72,2168.23l-58.83-34c-4.72-2.73-4.13-7.49,1.32-10.64l58.3-33.66c5.45-3.15,13.7-3.49,18.43-.76l58.83,34c4.73,2.72,4.13,7.49-1.32,10.64l-58.3,33.65C3533.7,2170.61,3525.45,2171,3520.72,2168.23Z"/><path class="cls-3" d="M2836.89,1671.29l-58.83-34c-4.73-2.72-4.14-7.49,1.32-10.64l58.29-33.65c5.46-3.15,13.71-3.49,18.43-.77l58.84,34c4.72,2.73,4.13,7.49-1.33,10.64l-58.29,33.66C2849.86,1673.68,2841.61,1674,2836.89,1671.29Z"/><path class="cls-3" d="M2744.68,1618.05l-58.84-34c-4.72-2.72-4.13-7.49,1.33-10.64l58.29-33.65c5.46-3.15,13.71-3.49,18.43-.77l58.83,34c4.73,2.73,4.14,7.49-1.32,10.64l-58.29,33.66C2757.65,1620.44,2749.4,1620.78,2744.68,1618.05Z"/><path class="cls-3" d="M2652.31,1564.73l-126.71-73.16c-4.72-2.73-4.13-7.49,1.33-10.64l58.29-33.66c5.45-3.15,13.7-3.49,18.43-.76l126.71,73.16c4.72,2.72,4.13,7.49-1.32,10.63l-58.3,33.66C2665.29,1567.11,2657,1567.45,2652.31,1564.73Z"/><path class="cls-3" d="M2716.87,1499.87l-102.82-59.36c-4.73-2.73-4.14-7.49,1.32-10.64l58.29-33.66c5.46-3.15,13.71-3.49,18.43-.76l102.83,59.36c4.73,2.73,4.13,7.5-1.32,10.65l-58.3,33.65C2729.85,1502.26,2721.6,1502.6,2716.87,1499.87Z"/><path class="cls-3" d="M2927.75,1723.75l-58.84-34c-4.72-2.73-4.13-7.49,1.33-10.64l58.29-33.66c5.45-3.15,13.71-3.49,18.43-.76l58.83,34c4.73,2.73,4.13,7.5-1.32,10.65L2946.18,1723C2940.72,1726.13,2932.47,1726.47,2927.75,1723.75Z"/><path class="cls-3" d="M3018.6,1776.2l-58.83-34c-4.72-2.72-4.13-7.49,1.32-10.64l58.3-33.65c5.45-3.15,13.7-3.49,18.42-.76l58.84,34c4.72,2.73,4.13,7.49-1.33,10.64L3037,1775.44C3031.58,1778.59,3023.33,1778.93,3018.6,1776.2Z"/><path class="cls-3" d="M3109.46,1828.66l-58.84-34c-4.72-2.73-4.13-7.49,1.33-10.64l58.29-33.66c5.46-3.15,13.71-3.49,18.43-.76l58.83,34c4.73,2.72,4.14,7.49-1.32,10.64l-58.29,33.65C3122.43,1831,3114.18,1831.38,3109.46,1828.66Z"/><path class="cls-3" d="M3200.31,1881.11l-58.83-34c-4.72-2.73-4.13-7.5,1.32-10.64l58.3-33.66c5.45-3.15,13.7-3.49,18.43-.76l58.83,34c4.72,2.73,4.13,7.49-1.32,10.64l-58.3,33.66C3213.29,1883.5,3205,1883.84,3200.31,1881.11Z"/><path class="cls-3" d="M3291.17,1933.57l-58.83-34c-4.73-2.72-4.13-7.49,1.32-10.64l58.3-33.66c5.45-3.14,13.7-3.49,18.42-.76l58.84,34c4.72,2.73,4.13,7.49-1.32,10.64l-58.3,33.66C3304.15,1936,3295.89,1936.3,3291.17,1933.57Z"/><path class="cls-3" d="M3382,1986l-58.84-34c-4.72-2.73-4.13-7.49,1.33-10.64l58.29-33.66c5.45-3.15,13.71-3.49,18.43-.76l58.83,34c4.73,2.72,4.13,7.49-1.32,10.64l-58.29,33.65C3395,1988.41,3386.75,1988.75,3382,1986Z"/><path class="cls-3" d="M3472.88,2038.48l-58.83-34c-4.72-2.72-4.13-7.49,1.32-10.64l58.3-33.65c5.45-3.15,13.7-3.49,18.43-.77l58.83,34c4.72,2.73,4.13,7.49-1.32,10.64l-58.3,33.66C3485.86,2040.87,3477.61,2041.21,3472.88,2038.48Z"/><path class="cls-3" d="M3563.74,2090.94l-58.83-34c-4.73-2.73-4.14-7.49,1.32-10.64l58.29-33.66c5.46-3.15,13.71-3.49,18.43-.76l58.83,34c4.73,2.72,4.14,7.49-1.32,10.64l-58.29,33.65C3576.71,2093.32,3568.46,2093.66,3563.74,2090.94Z"/><path class="cls-3" d="M3654.59,2143.39l-58.83-34c-4.72-2.73-4.13-7.5,1.33-10.65l58.29-33.65c5.45-3.15,13.71-3.49,18.43-.76l58.83,34c4.73,2.73,4.13,7.49-1.32,10.64l-58.3,33.66C3667.57,2145.78,3659.32,2146.12,3654.59,2143.39Z"/><path class="cls-3" d="M3816.12,2236.65l-128.37-74.12c-4.73-2.72-4.13-7.49,1.32-10.64l58.3-33.65c5.45-3.15,13.7-3.49,18.43-.77l128.37,74.12c4.72,2.72,4.12,7.49-1.33,10.64l-58.29,33.65C3829.09,2239,3820.84,2239.37,3816.12,2236.65Z"/><path class="cls-3" d="M3993,2134.52,3884.66,2072c-4.73-2.73-4.14-7.49,1.32-10.64l58.29-33.66c5.46-3.15,13.71-3.49,18.43-.76l108.35,62.55c4.72,2.73,4.13,7.49-1.32,10.64l-58.3,33.66C4006,2136.91,3997.73,2137.25,3993,2134.52Z"/><path class="cls-3" d="M3086.85,1713.48l-58.83-34c-4.72-2.72-4.13-7.49,1.32-10.63l58.3-33.66c5.45-3.15,13.7-3.49,18.43-.77l58.83,34c4.72,2.73,4.13,7.49-1.32,10.64l-58.3,33.66C3099.83,1715.87,3091.58,1716.21,3086.85,1713.48Z"/><path class="cls-3" d="M2993.74,1659.72l-58.83-34c-4.73-2.72-4.14-7.49,1.32-10.64l58.29-33.65c5.46-3.15,13.71-3.49,18.43-.77l58.83,34c4.73,2.73,4.14,7.49-1.32,10.64L3012.17,1659C3006.71,1662.11,2998.46,1662.45,2993.74,1659.72Z"/><path class="cls-3" d="M2900.62,1606l-58.83-34c-4.72-2.72-4.13-7.49,1.32-10.64l58.3-33.65c5.45-3.15,13.7-3.49,18.43-.77l58.83,34c4.72,2.73,4.13,7.49-1.32,10.64l-58.3,33.66C2913.6,1608.35,2905.35,1608.69,2900.62,1606Z"/><path class="cls-3" d="M2807.51,1552.2l-58.84-34c-4.72-2.72-4.13-7.49,1.33-10.64l58.29-33.65c5.45-3.15,13.71-3.49,18.43-.77l58.83,34c4.73,2.73,4.13,7.49-1.32,10.64l-58.29,33.66C2820.48,1554.59,2812.23,1554.93,2807.51,1552.2Z"/><path class="cls-3" d="M3177.71,1765.94l-58.83-34c-4.73-2.73-4.13-7.49,1.32-10.64l58.3-33.66c5.45-3.14,13.7-3.49,18.42-.76l58.84,34c4.72,2.73,4.13,7.49-1.33,10.64l-58.29,33.66C3190.69,1768.32,3182.43,1768.67,3177.71,1765.94Z"/><path class="cls-3" d="M3268.57,1818.39l-58.84-34c-4.72-2.73-4.13-7.49,1.33-10.64l58.29-33.66c5.46-3.15,13.71-3.49,18.43-.76l58.83,34c4.73,2.73,4.14,7.5-1.32,10.64L3287,1817.63C3281.54,1820.78,3273.29,1821.12,3268.57,1818.39Z"/><path class="cls-3" d="M3359.42,1870.85l-58.83-34c-4.72-2.72-4.13-7.49,1.32-10.64l58.3-33.65c5.45-3.15,13.7-3.49,18.43-.77l58.83,34c4.72,2.73,4.13,7.49-1.32,10.64l-58.3,33.66C3372.4,1873.24,3364.15,1873.58,3359.42,1870.85Z"/><path class="cls-3" d="M3450.28,1923.3l-58.83-34c-4.73-2.73-4.14-7.49,1.32-10.64l58.29-33.66c5.46-3.15,13.71-3.49,18.43-.76l58.84,34c4.72,2.72,4.13,7.49-1.33,10.64l-58.29,33.65C3463.25,1925.69,3455,1926,3450.28,1923.3Z"/><path class="cls-3" d="M3541.14,1975.76l-58.84-34c-4.72-2.73-4.13-7.5,1.32-10.65l58.3-33.65c5.45-3.15,13.7-3.49,18.43-.77l58.83,34c4.73,2.73,4.13,7.49-1.32,10.64l-58.3,33.66C3554.11,1978.15,3545.86,1978.49,3541.14,1975.76Z"/><path class="cls-3" d="M3632,2028.22l-58.83-34c-4.72-2.73-4.13-7.49,1.32-10.64l58.3-33.66c5.45-3.15,13.7-3.49,18.43-.76l58.83,34c4.72,2.72,4.13,7.49-1.32,10.64l-58.3,33.65C3645,2030.6,3636.72,2030.94,3632,2028.22Z"/><path class="cls-3" d="M3722.85,2080.67l-58.84-34c-4.72-2.73-4.13-7.5,1.33-10.64l58.29-33.66c5.46-3.15,13.71-3.49,18.43-.76l58.84,34c4.72,2.73,4.13,7.49-1.33,10.64l-58.29,33.66C3735.82,2083.06,3727.57,2083.4,3722.85,2080.67Z"/><path class="cls-3" d="M3813.71,2133.13l-58.84-34c-4.72-2.73-4.13-7.49,1.32-10.64l58.3-33.65c5.45-3.15,13.7-3.5,18.43-.77l58.83,34c4.72,2.73,4.13,7.49-1.32,10.64l-58.3,33.66C3826.68,2135.51,3818.43,2135.86,3813.71,2133.13Z"/><path class="cls-3" d="M3904.56,2185.59l-58.83-34c-4.73-2.73-4.14-7.49,1.32-10.64l58.29-33.66c5.46-3.15,13.71-3.49,18.43-.76l58.84,34c4.72,2.72,4.13,7.49-1.33,10.63L3923,2184.82C3917.53,2188,3909.28,2188.31,3904.56,2185.59Z"/><path class="cls-3" d="M3039,1583.74l-58.83-34c-4.72-2.73-4.13-7.49,1.32-10.64l58.3-33.66c5.45-3.15,13.7-3.49,18.43-.76l58.83,34c4.72,2.72,4.13,7.49-1.32,10.64l-58.3,33.65C3052,1586.12,3043.74,1586.46,3039,1583.74Z"/><path class="cls-3" d="M2948.61,1531.54l-58.83-34c-4.73-2.72-4.14-7.49,1.32-10.64l58.29-33.65c5.46-3.15,13.71-3.49,18.43-.77l58.83,34c4.73,2.73,4.14,7.49-1.32,10.64L2967,1530.78C2961.58,1533.93,2953.33,1534.27,2948.61,1531.54Z"/><path class="cls-3" d="M2858.21,1479.35l-58.84-34c-4.72-2.73-4.13-7.49,1.32-10.64l58.3-33.66c5.45-3.15,13.7-3.49,18.43-.76l58.83,34c4.72,2.72,4.13,7.49-1.32,10.64l-58.3,33.65C2871.18,1481.73,2862.93,1482.07,2858.21,1479.35Z"/><path class="cls-3" d="M2767.8,1427.15l-58.83-34c-4.73-2.72-4.13-7.49,1.32-10.64l58.29-33.65c5.46-3.15,13.71-3.49,18.43-.77l58.84,34c4.72,2.73,4.13,7.49-1.33,10.64l-58.29,33.66C2780.78,1429.54,2772.53,1429.88,2767.8,1427.15Z"/><path class="cls-3" d="M2860.76,1373.48l-58.83-34c-4.72-2.73-4.13-7.49,1.32-10.64l19.27-11.12c5.46-3.15,13.71-3.5,18.43-.77l58.84,34c4.72,2.73,4.13,7.49-1.33,10.64l-19.27,11.12C2873.74,1375.86,2865.49,1376.21,2860.76,1373.48Z"/><path class="cls-3" d="M2978.74,1441.59l-58.83-34c-4.73-2.73-4.13-7.49,1.32-10.64l19.27-11.13c5.46-3.15,13.71-3.49,18.43-.76l58.84,34c4.72,2.73,4.12,7.5-1.33,10.64l-19.27,11.13C2991.72,1444,2983.46,1444.32,2978.74,1441.59Z"/><path class="cls-3" d="M3068.77,1493.57l-58.83-34c-4.73-2.72-4.14-7.49,1.32-10.64l19.27-11.12c5.45-3.15,13.7-3.49,18.43-.77l58.83,34c4.72,2.73,4.13,7.49-1.32,10.64l-19.27,11.13C3081.74,1496,3073.49,1496.3,3068.77,1493.57Z"/><path class="cls-3" d="M3158.8,1545.55l-58.84-34c-4.72-2.73-4.13-7.49,1.33-10.64l19.27-11.13c5.45-3.14,13.7-3.49,18.43-.76l58.83,34c4.72,2.73,4.13,7.49-1.32,10.64l-19.27,11.12C3171.77,1547.93,3163.52,1548.28,3158.8,1545.55Z"/><path class="cls-3" d="M3248.82,1597.53l-58.83-34c-4.72-2.73-4.13-7.49,1.32-10.64l19.27-11.13c5.46-3.15,13.71-3.49,18.43-.76l58.84,34c4.72,2.72,4.13,7.49-1.33,10.64l-19.27,11.12C3261.8,1599.91,3253.55,1600.25,3248.82,1597.53Z"/><path class="cls-3" d="M3751.43,1887.71l-58.83-34c-4.72-2.73-4.13-7.49,1.32-10.64l19.27-11.13c5.46-3.14,13.71-3.49,18.43-.76l58.84,34c4.72,2.73,4.13,7.49-1.33,10.64l-19.27,11.12C3764.41,1890.09,3756.16,1890.43,3751.43,1887.71Z"/><path class="cls-3" d="M3841.46,1939.69l-58.83-34c-4.73-2.73-4.13-7.49,1.32-10.64l19.27-11.13c5.45-3.15,13.71-3.49,18.43-.76l58.83,34c4.73,2.72,4.13,7.49-1.32,10.64l-19.27,11.12C3854.44,1942.07,3846.18,1942.41,3841.46,1939.69Z"/><path class="cls-3" d="M3931.49,1991.66l-58.83-34c-4.73-2.73-4.14-7.5,1.32-10.65l19.27-11.12c5.45-3.15,13.7-3.49,18.43-.77l58.83,34c4.72,2.73,4.13,7.49-1.32,10.64l-19.27,11.13C3944.46,1994.05,3936.21,1994.39,3931.49,1991.66Z"/><path class="cls-3" d="M4021.52,2043.64l-58.84-34c-4.72-2.73-4.13-7.49,1.33-10.64l19.27-11.12c5.45-3.15,13.7-3.49,18.43-.77l58.83,34c4.72,2.73,4.13,7.49-1.33,10.64l-19.27,11.13C4034.49,2046,4026.24,2046.37,4021.52,2043.64Z"/><path class="cls-3" d="M3129.87,1636.19l-58.83-34c-4.73-2.72-4.13-7.49,1.32-10.64l58.29-33.65c5.46-3.15,13.71-3.49,18.43-.77l58.84,34c4.72,2.73,4.13,7.49-1.33,10.64l-58.29,33.66C3142.85,1638.58,3134.59,1638.92,3129.87,1636.19Z"/><path class="cls-3" d="M3220.73,1688.65l-58.84-34c-4.72-2.73-4.13-7.49,1.32-10.64l58.3-33.66c5.45-3.14,13.7-3.49,18.43-.76l58.83,34c4.73,2.73,4.13,7.49-1.32,10.64l-58.3,33.65C3233.7,1691,3225.45,1691.38,3220.73,1688.65Z"/><path class="cls-3" d="M3311.58,1741.1l-58.83-34c-4.73-2.73-4.13-7.49,1.32-10.64l58.3-33.66c5.45-3.15,13.7-3.49,18.43-.76l58.83,34c4.72,2.73,4.13,7.49-1.32,10.64l-58.3,33.66C3324.56,1743.49,3316.31,1743.83,3311.58,1741.1Z"/><path class="cls-3" d="M3402.44,1793.56l-58.83-34c-4.73-2.73-4.14-7.49,1.32-10.64l58.29-33.65c5.46-3.15,13.71-3.5,18.43-.77l58.83,34c4.73,2.73,4.14,7.49-1.32,10.64l-58.29,33.66C3415.41,1795.94,3407.16,1796.29,3402.44,1793.56Z"/><path class="cls-3" d="M3493.29,1846l-58.83-34c-4.72-2.73-4.13-7.49,1.32-10.64l58.3-33.66c5.45-3.15,13.7-3.49,18.43-.76l58.83,34c4.72,2.72,4.13,7.49-1.32,10.64l-58.3,33.65C3506.27,1848.4,3498,1848.74,3493.29,1846Z"/><path class="cls-3" d="M3584.15,1898.47l-58.83-34c-4.73-2.72-4.13-7.49,1.32-10.64l58.29-33.65c5.46-3.15,13.71-3.49,18.43-.77l58.84,34c4.72,2.73,4.13,7.49-1.33,10.64l-58.29,33.66C3597.13,1900.86,3588.87,1901.2,3584.15,1898.47Z"/><path class="cls-3" d="M3675,1950.93l-58.84-34c-4.72-2.73-4.13-7.49,1.33-10.64l58.29-33.66c5.45-3.15,13.71-3.49,18.43-.76l58.83,34c4.73,2.72,4.13,7.49-1.32,10.64l-58.3,33.65C3688,1953.31,3679.73,1953.65,3675,1950.93Z"/><path class="cls-3" d="M3765.86,2003.38l-58.83-34c-4.72-2.73-4.13-7.5,1.32-10.64l58.3-33.66c5.45-3.15,13.7-3.49,18.43-.77l58.83,34c4.72,2.73,4.13,7.49-1.32,10.64l-58.3,33.66C3778.84,2005.77,3770.59,2006.11,3765.86,2003.38Z"/><path class="cls-3" d="M3856.72,2055.84l-58.83-34c-4.73-2.72-4.14-7.49,1.32-10.64l58.29-33.66c5.46-3.14,13.71-3.49,18.43-.76l58.84,34c4.72,2.73,4.13,7.49-1.33,10.64l-58.29,33.65C3869.69,2058.23,3861.44,2058.57,3856.72,2055.84Z"/><path class="cls-3" d="M2610.43,1642.67l-173.27-100c-4.72-2.73-4.13-7.49,1.32-10.64l58.3-33.66c5.45-3.14,13.7-3.49,18.43-.76l173.27,100c4.72,2.73,4.13,7.49-1.33,10.64l-58.29,33.66C2623.4,1645.05,2615.15,1645.4,2610.43,1642.67Z"/><path class="cls-3" d="M3726.62,2287.1l-173.27-100c-4.72-2.72-4.13-7.49,1.32-10.64l58.3-33.65c5.45-3.15,13.7-3.49,18.43-.77l173.27,100c4.72,2.73,4.13,7.49-1.33,10.64l-58.29,33.66C3739.59,2289.49,3731.34,2289.83,3726.62,2287.1Z"/><path class="cls-3" d="M3363.27,2193.19l-58.83-34c-4.72-2.73-4.13-7.5,1.32-10.65l69.45-40.09c5.45-3.15,13.7-3.49,18.43-.76l58.83,34c4.72,2.73,4.13,7.5-1.32,10.65l-69.45,40.09C3376.25,2195.58,3368,2195.92,3363.27,2193.19Z"/><path class="cls-3" d="M2703.47,1812.26l-94.09-54.33c-4.72-2.72-4.13-7.49,1.33-10.64l69.44-40.09c5.45-3.15,13.71-3.49,18.43-.76l94.09,54.32c4.72,2.73,4.13,7.49-1.32,10.64l-69.45,40.09C2716.45,1814.64,2708.2,1815,2703.47,1812.26Z"/><path class="cls-3" d="M3275.73,2142.65l-94.09-54.32c-4.72-2.73-4.13-7.49,1.32-10.64l69.45-40.1c5.45-3.15,13.7-3.49,18.43-.76l94.09,54.32c4.72,2.73,4.13,7.49-1.32,10.64l-69.45,40.1C3288.71,2145,3280.46,2145.38,3275.73,2142.65Z"/><path class="cls-3" d="M2834.56,1887.94l-94.09-54.32c-4.72-2.73-4.13-7.49,1.32-10.64l69.45-40.1c5.45-3.15,13.7-3.49,18.43-.76l94.09,54.32c4.72,2.73,4.13,7.49-1.33,10.64l-69.44,40.1C2847.53,1890.32,2839.28,1890.67,2834.56,1887.94Z"/><path class="cls-3" d="M2830.3,1782.49l409.08,236.18c5.08,2.93,5.08,7.68,0,10.61l-70.81,40.89c-5.08,2.93-13.31,2.93-18.38,0L2741.11,1834Z"/><path class="cls-3" d="M3617.2,2288.3l65.54,37.84c3.87,2.23,3.38,6.14-1.09,8.72l-28.41,16.4c-4.47,2.58-11.23,2.86-15.1.63l-65.54-37.84c-3.87-2.24-3.38-6.14,1.09-8.72l28.41-16.4C3606.57,2286.35,3613.33,2286.07,3617.2,2288.3Z"/><path class="cls-3" d="M3525.59,2235.41l65.54,37.83c3.87,2.24,3.38,6.15-1.09,8.73l-28.41,16.4c-4.47,2.58-11.23,2.86-15.1.62L3481,2261.16c-3.87-2.24-3.38-6.14,1.09-8.72l28.41-16.4C3515,2233.45,3521.72,2233.17,3525.59,2235.41Z"/><path class="cls-3" d="M3434.74,2183l65.53,37.84c3.87,2.23,3.39,6.14-1.08,8.72l-28.41,16.4c-4.47,2.58-11.24,2.86-15.11.63l-65.53-37.84c-3.87-2.23-3.39-6.14,1.08-8.72l28.41-16.4C3424.1,2181,3430.86,2180.72,3434.74,2183Z"/><path class="cls-3" d="M3575.77,2206.44l65.53,37.84c3.87,2.23,3.39,6.14-1.09,8.72l-28.4,16.4c-4.47,2.58-11.24,2.86-15.11.63l-65.53-37.84c-3.88-2.23-3.39-6.14,1.08-8.72l28.41-16.4C3565.13,2204.49,3571.89,2204.21,3575.77,2206.44Z"/><path class="cls-3" d="M2402.67,2036.72l238.44-137.62a54.06,54.06,0,0,1,54.26.11L3105.21,2138a22.25,22.25,0,0,1-.19,38.57l-238.95,136a56,56,0,0,1-56.08-.4l-407.46-239.62A20.75,20.75,0,0,1,2402.67,2036.72Z"/><path class="cls-3" d="M3951.37,1829.37l-854.6-493-14.51,9.49a18.68,18.68,0,0,0,.88,31.83l805.26,465a42,42,0,0,0,43.43-.89Z"/><path class="cls-5" d="M3813.2,881,3012.29,418.6c-14-8.09-25.35-29.77-25.35-48.44V233L3838.55,724.7V861.84C3838.55,880.51,3827.2,889.09,3813.2,881Z"/><path class="cls-3" d="M3813.2,630.3,3012.29,167.89c-14-8.08-25.35.5-25.35,19.16v46L3838.55,724.7v-46C3838.55,660.06,3827.2,638.38,3813.2,630.3Z"/><ellipse class="cls-5" cx="3679.49" cy="594.89" rx="13.48" ry="23.35" transform="matrix(0.86, -0.51, 0.51, 0.86, 203.92, 1941.34)"/><ellipse class="cls-5" cx="3729.2" cy="623.58" rx="13.48" ry="23.35" transform="translate(196.23 1970.4) rotate(-30.36)"/><ellipse class="cls-5" cx="3778.9" cy="652.28" rx="13.48" ry="23.35" transform="translate(188.54 1999.46) rotate(-30.36)"/><text class="cls-13" transform="matrix(0.87, 0.5, 0, 1, 3021.73, 313.93)">Input:</text><text class="cls-14" transform="matrix(0.87, 0.5, 0, 1, 3218.9, 491.73)">12 , 15, 24</text><path class="cls-3" d="M3597.3,918.84,3144.13,657.2c-16.57-9.56-30-35.21-30-57.3V561.23c0-22.08,13.42-32.23,30-22.67L3597.3,800.2c16.56,9.57,30,35.22,30,57.3v38.67C3627.29,918.25,3613.86,928.4,3597.3,918.84Z"/><text class="cls-15" transform="matrix(0.87, 0.5, 0, 1, 3217.98, 663.32)">Calculate</text><path class="cls-3" d="M3827.57,1150v83.86L2982,745.69V661.84c0-35.32,25-49.53,55.79-31.74l734,423.75C3802.59,1071.64,3827.57,1114.69,3827.57,1150Z"/><text class="cls-16" transform="matrix(0.87, 0.5, 0, 1, 3032.68, 725.64)">LEAST COMMON MULTIPLE</text><path class="cls-5" d="M3827.57,1233.87v353.88c0,35.32-25,49.53-55.79,31.75l-734-423.76C3007,1178,2982,1134.9,2982,1099.58V745.69Z"/><text class="cls-17" transform="matrix(0.87, 0.5, 0, 1, 3114.22, 1062.94)">LCM : 120</text><polygon class="cls-3" points="4187.85 906.94 3914.17 748.93 3914.17 726.36 4187.85 884.37 4187.85 906.94"/><polygon class="cls-3" points="4187.85 940.8 3914.17 782.79 3914.17 760.22 4187.85 918.23 4187.85 940.8"/><polygon class="cls-3" points="4187.85 974.65 3914.17 816.64 3914.17 794.07 4187.85 952.08 4187.85 974.65"/><polygon class="cls-3" points="4187.85 1008.51 3914.17 850.5 3914.17 827.93 4187.85 985.94 4187.85 1008.51"/><polygon class="cls-3" points="4187.85 1042.37 3914.17 884.36 3914.17 861.78 4187.85 1019.79 4187.85 1042.37"/><polygon class="cls-3" points="4187.85 1076.22 3914.17 918.21 3914.17 895.64 4187.85 1053.65 4187.85 1076.22"/><polygon class="cls-3" points="4187.85 1110.08 3914.17 952.07 3914.17 929.5 4187.85 1087.51 4187.85 1110.08"/><polygon class="cls-3" points="4065.78 1073.45 3914.17 985.92 3914.17 963.35 4065.78 1050.88 4065.78 1073.45"/><polygon class="cls-3" points="4187.85 1262.35 3914.17 1104.34 3914.17 1081.76 4187.85 1239.78 4187.85 1262.35"/><polygon class="cls-3" points="4187.85 1296.2 3914.17 1138.19 3914.17 1115.62 4187.85 1273.63 4187.85 1296.2"/><polygon class="cls-3" points="4187.85 1330.06 3914.17 1172.05 3914.17 1149.48 4187.85 1307.49 4187.85 1330.06"/><polygon class="cls-3" points="4187.85 1363.91 3914.17 1205.9 3914.17 1183.33 4187.85 1341.34 4187.85 1363.91"/><polygon class="cls-3" points="4187.85 1397.77 3914.17 1239.76 3914.17 1217.19 4187.85 1375.2 4187.85 1397.77"/><polygon class="cls-3" points="4187.85 1431.63 3914.17 1273.62 3914.17 1251.05 4187.85 1409.06 4187.85 1431.63"/><polygon class="cls-3" points="4187.85 1465.48 3914.17 1307.47 3914.17 1284.9 4187.85 1442.91 4187.85 1465.48"/><polygon class="cls-3" points="4065.78 1428.86 3914.17 1341.33 3914.17 1318.76 4065.78 1406.29 4065.78 1428.86"/><polygon class="cls-3" points="4187.85 1617.75 3914.17 1459.74 3914.17 1437.17 4187.85 1595.18 4187.85 1617.75"/><polygon class="cls-3" points="4187.85 1651.61 3914.17 1493.6 3914.17 1471.02 4187.85 1629.04 4187.85 1651.61"/><polygon class="cls-3" points="4187.85 1685.46 3914.17 1527.45 3914.17 1504.88 4187.85 1662.89 4187.85 1685.46"/><polygon class="cls-3" points="4187.85 1719.32 3914.17 1561.31 3914.17 1538.74 4187.85 1696.75 4187.85 1719.32"/><polygon class="cls-3" points="4187.85 1753.17 3914.17 1595.16 3914.17 1572.59 4187.85 1730.6 4187.85 1753.17"/><polygon class="cls-3" points="4187.85 1787.03 3914.17 1629.02 3914.17 1606.45 4187.85 1764.46 4187.85 1787.03"/><polygon class="cls-3" points="4187.85 1820.89 3914.17 1662.88 3914.17 1640.31 4187.85 1798.32 4187.85 1820.89"/><polygon class="cls-3" points="4065.78 1784.26 3914.17 1696.73 3914.17 1674.16 4065.78 1761.69 4065.78 1784.26"/><g class="cls-18"><polygon class="cls-3" points="1785.98 743.6 1785.87 784.8 1510.88 944.61 1510.99 903.41 1785.98 743.6"/><polygon class="cls-3" points="1647.1 981.99 1646.98 1023.19 1588.61 1057.11 1588.72 1015.91 1647.1 981.99"/><polygon class="cls-3" points="1588.72 1015.91 1588.61 1057.11 1381.36 937.45 1381.47 896.25 1588.72 1015.91"/><polygon class="cls-5" points="1785.98 743.6 1510.99 903.41 1647.1 981.99 1588.72 1015.91 1381.47 896.25 1714.83 702.52 1785.98 743.6"/></g><g class="cls-18"><polygon class="cls-3" points="2202.44 1005.71 2202.32 1046.9 2121.91 1067.04 2122.03 1025.84 2202.44 1005.71"/><path class="cls-3" d="M1807.45,1096.58l.11-41.2q.09-31.64,63.52-68.49,53.58-31.14,105.61-35.85t92.18,18.49A113.83,113.83,0,0,1,2099.66,995a265.94,265.94,0,0,1,22.37,30.87l-.12,41.2a267,267,0,0,0-22.36-30.87,114.22,114.22,0,0,0-30.8-25.44q-40.15-23.19-92.18-18.49T1871,1028.09Q1807.54,1064.95,1807.45,1096.58Z"/><polygon class="cls-3" points="1946.97 1139.54 1946.86 1180.74 1887.58 1215.19 1887.69 1173.99 1946.97 1139.54"/><path class="cls-3" d="M1710,1087.89l.11-41.2q-.12,44.5,68.25,84A405.18,405.18,0,0,0,1887.69,1174l-.11,41.2a405.12,405.12,0,0,1-109.37-43.33Q1709.86,1132.4,1710,1087.89Z"/><path class="cls-5" d="M2127.7,935.34q48.89,28.23,74.74,70.36L2122,1025.84A265.94,265.94,0,0,0,2099.66,995a113.83,113.83,0,0,0-30.79-25.44q-40.17-23.19-92.18-18.49t-105.61,35.85q-111.49,64.8-27.27,113.43,35.34,20.4,103.17,39.22L1887.69,1174a405.18,405.18,0,0,1-109.36-43.33q-73.21-42.27-67.88-90.3t87.88-96a359,359,0,0,1,110.14-41.94,328.94,328.94,0,0,1,114.7-3.24A294.4,294.4,0,0,1,2127.7,935.34Z"/></g><g class="cls-18"><polygon class="cls-3" points="2269.34 1105.88 2269.23 1147.08 2267.16 1145.89 2267.28 1104.69 2269.34 1105.88"/><path class="cls-3" d="M2267.28,1104.69l-.12,41.2q-75.43,48.88-102.12,64.4l.12-41.2Q2191.83,1153.58,2267.28,1104.69Z"/><polygon class="cls-3" points="2503.45 1241.57 2503.34 1282.77 2501.27 1281.57 2501.38 1240.37 2503.45 1241.57"/><polygon class="cls-3" points="2165.16 1169.09 2165.04 1210.29 2009.99 1300.4 2010.11 1259.2 2165.16 1169.09"/><polygon class="cls-3" points="2010.11 1259.2 2009.99 1300.4 1946.41 1263.69 1946.53 1222.49 2010.11 1259.2"/><polygon class="cls-3" points="2376.75 1084.68 2376.63 1125.88 2201.11 1319.87 2201.23 1278.67 2376.75 1084.68"/><polygon class="cls-3" points="2153.78 1342.14 2153.66 1383.35 2088.48 1345.71 2088.6 1304.51 2153.78 1342.14"/><polygon class="cls-3" points="2501.38 1240.37 2501.27 1281.57 2153.66 1383.35 2153.78 1342.14 2501.38 1240.37"/><polygon class="cls-3" points="2638.62 1235.87 2638.5 1277.07 2305.14 1470.8 2305.26 1429.6 2638.62 1235.87"/><path class="cls-5" d="M2638.62,1235.87,2305.25,1429.6l-66.32-38.29,157.79-91.7q11.16-6.49,26.1-14.78t80.63-43.26l-2.07-1.2-347.6,101.77-65.18-37.63,180.74-198.63-2.06-1.19q-75.45,48.88-102.12,64.4l-155,90.11-63.58-36.71,333.36-193.73,96.86,55.92-175.52,194,1.38.8L2541.76,1180Z"/><polygon class="cls-3" points="2305.26 1429.6 2305.14 1470.8 2238.81 1432.51 2238.93 1391.31 2305.26 1429.6"/></g></g></svg>