<svg id="Layer_1" data-name="Layer 1" xmlns="http://www.w3.org/2000/svg" xmlns:xlink="http://www.w3.org/1999/xlink" viewBox="0 0 4500 2500"><defs><style>.cls-1{fill:none;}.cls-2{fill:#aed3f0;}.cls-3{fill:#c3dcf3;}.cls-10,.cls-11,.cls-12,.cls-13,.cls-16,.cls-17,.cls-18,.cls-19,.cls-20,.cls-21,.cls-22,.cls-23,.cls-24,.cls-25,.cls-26,.cls-27,.cls-28,.cls-29,.cls-3,.cls-30,.cls-32,.cls-33,.cls-35,.cls-36,.cls-38,.cls-40,.cls-41,.cls-7,.cls-8,.cls-9{fill-rule:evenodd;}.cls-4{clip-path:url(#clip-path);}.cls-5,.cls-6{fill:#fff;}.cls-5{fill-opacity:0.45;}.cls-6{fill-opacity:0.55;}.cls-7{fill-opacity:0.12;}.cls-8{fill:#f7fbff;}.cls-9{fill-opacity:0.29;}.cls-10{fill:#c5e3ff;}.cls-11{fill:#d9edff;}.cls-12{fill:#cce6ff;}.cls-13{fill:#c0dbf0;}.cls-14{fill:#ec6198;}.cls-14,.cls-15,.cls-16,.cls-17{fill-opacity:0.71;}.cls-15{fill:#edd573;}.cls-16,.cls-29{fill:#44ae9e;}.cls-17{fill:#bfe0ff;}.cls-18{fill-opacity:0.16;}.cls-19{fill-opacity:0.2;}.cls-20{fill:#e6f3ff;}.cls-21{fill:url(#linear-gradient);}.cls-22{fill:#76b5e6;}.cls-23{fill:url(#linear-gradient-2);}.cls-24{fill:#378c7f;}.cls-25{fill:url(#linear-gradient-3);}.cls-26{fill:#98d4cb;}.cls-27{fill-opacity:0.34;}.cls-28{fill:#7eccc1;}.cls-30{fill:url(#linear-gradient-4);}.cls-31{fill:url(#linear-gradient-5);}.cls-32,.cls-37{fill:#337b70;}.cls-33{fill:#c0e5df;}.cls-34{fill:#2d6c62;}.cls-35{fill:#7ac8bc;}.cls-36{fill:url(#linear-gradient-6);}.cls-38{fill:#62a0db;}.cls-39{fill:#134f7b;}.cls-40{fill:#124f7b;}.cls-41{fill:url(#linear-gradient-7);}</style><clipPath id="clip-path"><rect class="cls-1" y="0.25" width="4499.99" height="2499.75"/></clipPath><linearGradient id="linear-gradient" x1="1291.62" y1="1792.33" x2="1292.8" y2="1792.33" gradientTransform="matrix(42.38, -379.12, -379.12, -42.38, 629006.6, 567066.72)" gradientUnits="userSpaceOnUse"><stop offset="0" stop-color="#fff" stop-opacity="0"/><stop offset="1" stop-color="#fff"/></linearGradient><linearGradient id="linear-gradient-2" x1="1290.24" y1="1790.63" x2="1291.43" y2="1790.63" gradientTransform="matrix(-194.16, -1990.85, -1990.85, 194.16, 3817779.08, 2224459.41)" gradientUnits="userSpaceOnUse"><stop offset="0" stop-opacity="0"/><stop offset="1"/></linearGradient><linearGradient id="linear-gradient-3" x1="1289.42" y1="1789.02" x2="1290.6" y2="1789.02" gradientTransform="matrix(-2.75, 1179.91, 1179.91, 2.75, -2103964.78, -1524807.38)" gradientUnits="userSpaceOnUse"><stop offset="0" stop-color="#378c7f"/><stop offset="1" stop-color="#10594d"/></linearGradient><linearGradient id="linear-gradient-4" x1="1290.64" y1="1790.54" x2="1291.82" y2="1790.54" gradientTransform="matrix(-822.6, -1409.49, -1409.49, 822.61, 3587446.81, 348571.2)" xlink:href="#linear-gradient"/><linearGradient id="linear-gradient-5" x1="1291.6" y1="1791.15" x2="1292.79" y2="1791.15" gradientTransform="matrix(428.24, -402.78, -402.78, -428.24, 171261.84, 1289263.6)" xlink:href="#linear-gradient"/><linearGradient id="linear-gradient-6" x1="1290.32" y1="1791.04" x2="1291.51" y2="1791.04" gradientTransform="matrix(305.86, -1023.88, -1023.88, -305.85, 1441972.48, 1870718.93)" xlink:href="#linear-gradient"/><linearGradient id="linear-gradient-7" x1="1291.47" y1="1792.8" x2="1292.66" y2="1792.8" gradientTransform="matrix(45.21, -443.02, -443.02, -45.21, 739061.05, 654315.31)" xlink:href="#linear-gradient"/></defs><g id="C47"><rect class="cls-2" y="0.25" width="4499.99" height="2499.75"/><path class="cls-3" d="M825.53,2499.75q9.4-21.7,20.11-42.25c123.66-237.14,443.49-414.73,686.14-497,244.74-83,582.23-98.83,832.36-33.78,182.11,47.36,369.13,76.27,549.93,127.1,390.31,109.74,881.58,337.71,1294.46,218.5,95.47-27.57,204.66-70.95,291.47-130v357.45ZM4500,521.42C4365.74,411.56,4198.51,367,4029.29,335.21,3237.41,186.66,2683.62,499.07,1921.58,587.35,1325.75,656.36,746.07,408.52,321,0H4500Z"/><rect class="cls-1" y="0.25" width="4499.99" height="2499.75"/><g class="cls-4"><rect class="cls-5" x="-299.44" y="143.06" width="2682.89" height="17.5"/><rect class="cls-5" x="-299.44" y="305.38" width="2682.89" height="17.5"/><rect class="cls-5" x="-299.44" y="467.7" width="2682.89" height="17.5"/><rect class="cls-5" x="-299.44" y="630.02" width="2682.89" height="17.5"/><rect class="cls-5" x="-299.44" y="792.34" width="2682.89" height="17.5"/><rect class="cls-5" x="-299.44" y="954.66" width="2682.89" height="17.5"/><rect class="cls-5" x="-299.44" y="1116.98" width="2682.89" height="17.5"/><rect class="cls-6" x="53.37" y="-34.88" width="14.89" height="1356.45"/><rect class="cls-6" x="228.52" y="-34.88" width="14.89" height="1356.45"/><rect class="cls-6" x="403.67" y="-34.88" width="14.89" height="1356.45"/><rect class="cls-6" x="578.82" y="-34.88" width="14.89" height="1356.45"/><rect class="cls-6" x="753.97" y="-34.88" width="14.89" height="1356.45"/><rect class="cls-6" x="929.12" y="-34.88" width="14.89" height="1356.45"/><rect class="cls-6" x="1104.26" y="-34.88" width="14.89" height="1356.45"/><rect class="cls-6" x="1279.41" y="-34.88" width="14.89" height="1356.45"/><rect class="cls-6" x="1454.56" y="-34.88" width="14.89" height="1356.45"/><rect class="cls-6" x="1629.71" y="-34.88" width="14.89" height="1356.45"/><rect class="cls-6" x="1804.85" y="-34.88" width="14.89" height="1356.45"/><rect class="cls-6" x="1980.01" y="-34.88" width="14.89" height="1356.45"/><rect class="cls-6" x="2155.16" y="-34.88" width="14.89" height="1356.45"/><rect class="cls-5" x="2142.28" y="143.06" width="2682.89" height="17.5"/><rect class="cls-5" x="2142.28" y="305.38" width="2682.89" height="17.5"/><rect class="cls-5" x="2142.28" y="467.7" width="2682.89" height="17.5"/><rect class="cls-5" x="2142.28" y="630.02" width="2682.89" height="17.5"/><rect class="cls-5" x="2142.28" y="792.34" width="2682.89" height="17.5"/><rect class="cls-5" x="2142.28" y="954.66" width="2682.89" height="17.5"/><rect class="cls-5" x="2142.28" y="1116.98" width="2682.89" height="17.5"/><rect class="cls-6" x="2319.95" y="-34.88" width="14.89" height="1356.45"/><rect class="cls-6" x="2495.1" y="-34.88" width="14.89" height="1356.45"/><rect class="cls-6" x="2670.25" y="-34.88" width="14.89" height="1356.45"/><rect class="cls-6" x="2845.4" y="-34.88" width="14.89" height="1356.45"/><rect class="cls-6" x="3020.55" y="-34.88" width="14.89" height="1356.45"/><rect class="cls-6" x="3195.69" y="-34.88" width="14.89" height="1356.45"/><rect class="cls-6" x="3370.84" y="-34.88" width="14.89" height="1356.45"/><rect class="cls-6" x="3545.99" y="-34.88" width="14.89" height="1356.45"/><rect class="cls-6" x="3721.14" y="-34.88" width="14.89" height="1356.45"/><rect class="cls-6" x="3896.29" y="-34.88" width="14.89" height="1356.45"/><rect class="cls-6" x="4071.43" y="-34.88" width="14.89" height="1356.45"/><rect class="cls-6" x="4246.58" y="-34.88" width="14.89" height="1356.45"/><rect class="cls-6" x="4421.74" y="-34.88" width="14.89" height="1356.45"/><path class="cls-7" d="M-84,2018.54,995.66,2285,876.43,2120s-924.7-191.83-942.61-202.2S-84,2018.54-84,2018.54Z"/><polygon class="cls-8" points="-644.68 1809.15 473.98 975.01 2439.34 1491.76 1320.68 2325.9 -644.68 1809.15"/><path class="cls-9" d="M571,1034.52l-672.12,437,2.75,360.89,1356.18,448.75Z"/><path class="cls-10" d="M2408.16,1483.56,1305,2306.17-629.21,1797.62l-15.46,11.52,1965.36,516.75,1118.65-834.14Z"/><polygon class="cls-11" points="-164.13 1814.54 94.49 1621.7 367.58 1693.5 108.96 1886.34 -164.13 1814.54"/><polygon class="cls-11" points="151.15 1579.45 409.77 1386.61 682.86 1458.41 424.24 1651.25 151.15 1579.45"/><polygon class="cls-11" points="466.42 1344.37 725.04 1151.52 998.13 1223.33 739.51 1416.17 466.42 1344.37"/><polygon class="cls-12" points="-164.13 1814.54 -99.14 1766.08 173.95 1837.88 108.96 1886.34 -164.13 1814.54"/><polygon class="cls-12" points="151.14 1579.45 216.13 1530.99 489.23 1602.8 424.23 1651.26 151.14 1579.45"/><polygon class="cls-12" points="466.43 1344.36 531.42 1295.9 804.51 1367.7 739.52 1416.16 466.43 1344.36"/><polygon class="cls-13" points="-248.2 1669.48 7.39 1478.91 50.85 1490.33 -204.73 1680.91 -248.2 1669.48"/><path class="cls-13" d="M520.56,1096.25,86.3,1420.06l132.25,34.78L652.81,1131Zm2.72,9.29,109.81,28.88L215.84,1445.54,106,1416.67l417.26-311.13Z"/><ellipse class="cls-14" cx="783.05" cy="1768.4" rx="361.33" ry="171.63" transform="translate(-188.76 96.28) rotate(-6.28)"/><ellipse class="cls-15" cx="1080.7" cy="1546.45" rx="361.33" ry="171.63" transform="translate(-162.69 127.51) rotate(-6.28)"/><path class="cls-16" d="M725.38,1603.13c91.28-14.87,188.23-13.46,268.9,7.76s129.86,58.22,144.07,100.82c-91.28,14.87-188.21,13.46-268.89-7.75S739.59,1645.74,725.38,1603.13Z"/><polygon class="cls-17" points="936.76 2110.22 1836.64 1439.22 1845.89 1441.65 946 2112.66 936.76 2110.22"/><polygon class="cls-17" points="1017.69 2131.5 1917.57 1460.5 1926.82 1462.93 1026.93 2133.93 1017.69 2131.5"/><polygon class="cls-17" points="1098.62 2152.78 1998.5 1481.78 2007.75 1484.21 1107.87 2155.21 1098.62 2152.78"/><polygon class="cls-17" points="1179.55 2174.06 2079.43 1503.06 2088.68 1505.49 1188.8 2176.49 1179.55 2174.06"/><polygon class="cls-17" points="1009.2 2021.4 1015.61 2016.62 1341.56 2102.32 1335.15 2107.1 1009.2 2021.4"/><polygon class="cls-17" points="1075.58 1971.91 1081.99 1967.13 1407.93 2052.83 1401.53 2057.61 1075.58 1971.91"/><polygon class="cls-17" points="1446.42 1695.38 1452.83 1690.61 1778.78 1776.31 1772.37 1781.09 1446.42 1695.38"/><polygon class="cls-13" points="-152.82 1694.56 102.76 1503.98 146.22 1515.41 -109.36 1705.99 -152.82 1694.56"/><polygon class="cls-8" points="-363.72 1700.14 754.94 866.01 2549.49 1510.11 1430.83 2344.25 -363.72 1700.14"/><path class="cls-18" d="M813.06,2099.94l666.86-423.75,443.37,211.08-692.4,374.35Z"/><path class="cls-10" d="M2521,1499.89,1417.83,2322.51-348.25,1688.62l-15.46,11.52,1794.56,644.11L2549.5,1510.11Z"/><polygon class="cls-11" points="85.48 1728.9 344.1 1536.06 593.46 1625.56 334.84 1818.4 85.48 1728.9"/><polygon class="cls-11" points="400.76 1493.81 659.38 1300.97 908.74 1390.47 650.12 1583.31 400.76 1493.81"/><polygon class="cls-11" points="716.03 1258.73 974.65 1065.89 1224.01 1155.38 965.39 1348.23 716.03 1258.73"/><polygon class="cls-12" points="85.48 1728.9 150.47 1680.44 399.83 1769.94 334.84 1818.4 85.48 1728.9"/><polygon class="cls-12" points="400.76 1493.82 465.75 1445.35 715.11 1534.85 650.11 1583.32 400.76 1493.82"/><polygon class="cls-12" points="716.04 1258.72 781.03 1210.26 1030.39 1299.76 965.4 1348.22 716.04 1258.72"/><polygon class="cls-13" points="-109.77 1666.76 -26.23 1604.46 13.45 1618.71 -70.09 1681 -109.77 1666.76"/><polygon class="cls-13" points="-22.69 1698.01 60.85 1635.72 100.54 1649.96 17 1712.26 -22.69 1698.01"/><polygon class="cls-13" points="19.32 1570.5 274.9 1379.92 314.59 1394.16 59.01 1584.74 19.32 1570.5"/><path class="cls-13" d="M788.08,997.26,353.81,1321.08l120.76,43.34,434.27-323.81Zm1.74,10,100.27,36L472.83,1354.4l-100.26-36,417.25-311.13Z"/><ellipse class="cls-14" cx="975.78" cy="1725.17" rx="340.62" ry="182.06" transform="translate(-161.05 101.6) rotate(-5.51)"/><ellipse class="cls-15" cx="1273.43" cy="1503.23" rx="340.62" ry="182.06" transform="translate(-138.38 129.14) rotate(-5.51)"/><path class="cls-16" d="M936.06,1546.52c86.7-11.45,177.29-5.3,251,21.14s116.49,68.18,126.12,114.21c-86.7,11.45-177.28,5.3-251-21.14S945.68,1592.55,936.06,1546.52Z"/><polygon class="cls-17" points="1090.16 2096.32 1990.04 1425.32 1998.48 1428.35 1098.6 2099.36 1090.16 2096.32"/><polygon class="cls-17" points="1164.06 2122.85 2063.94 1451.85 2072.38 1454.88 1172.5 2125.88 1164.06 2122.85"/><polygon class="cls-17" points="1237.96 2149.37 2137.84 1478.37 2146.28 1481.4 1246.4 2152.4 1237.96 2149.37"/><polygon class="cls-17" points="1311.85 2175.89 2211.74 1504.89 2220.18 1507.92 1320.3 2178.93 1311.85 2175.89"/><polygon class="cls-17" points="1165.6 2005.27 1172.01 2000.49 1469.63 2107.31 1463.22 2112.09 1165.6 2005.27"/><polygon class="cls-17" points="1231.98 1955.77 1238.39 1950.99 1536.01 2057.82 1529.6 2062.59 1231.98 1955.77"/><polygon class="cls-17" points="1602.82 1679.25 1609.23 1674.47 1906.85 1781.29 1900.44 1786.07 1602.82 1679.25"/><polygon class="cls-13" points="106.4 1601.75 361.99 1411.18 401.67 1425.42 146.09 1616 106.4 1601.75"/><path class="cls-8" d="M2872.74,2590.06l617-394.23,733.15,341.77Z"/><path class="cls-19" d="M3123.83,2770s576.06-541.8,648.49-623.88c55.45-62.83-183.31-272.08-69.61-366.29l524.74,269.63s151.05-6.2,144.06-132.44-243.6-304.73-243.6-304.73l-605.72-142.78-677.1,856.85Z"/><polygon class="cls-8" points="2660.17 2166.43 1477.61 1689.65 39.92 2677.74 1222.48 3154.5 2660.17 2166.43"/><path class="cls-10" d="M62.74,2662.05,1229,3132.24l1414.87-972.41,16.34,6.59L1222.48,3154.5,39.92,2677.73Z"/><polygon class="cls-11" points="2269.6 2296.61 1996.2 2186.39 1796.43 2323.68 2069.83 2433.91 2269.6 2296.61"/><polygon class="cls-11" points="1936.31 2162.24 1662.92 2052.02 1463.15 2189.31 1736.54 2299.53 1936.31 2162.24"/><polygon class="cls-11" points="1603.03 2027.87 1329.63 1917.65 1129.87 2054.94 1403.26 2165.17 1603.03 2027.87"/><polygon class="cls-12" points="2269.6 2296.61 2200.89 2268.91 2001.12 2406.21 2069.83 2433.91 2269.6 2296.61"/><polygon class="cls-12" points="1936.31 2162.24 1867.61 2134.54 1667.84 2271.84 1736.54 2299.54 1936.31 2162.24"/><polygon class="cls-12" points="1603.02 2027.87 1534.32 2000.17 1334.55 2137.47 1403.25 2165.16 1603.02 2027.87"/><polygon class="cls-13" points="2427.86 2196.12 2339.55 2160.51 2307.75 2182.37 2396.07 2217.97 2427.86 2196.12"/><polygon class="cls-13" points="2358.09 2244.07 2269.78 2208.46 2237.99 2230.31 2326.3 2265.92 2358.09 2244.07"/><polygon class="cls-13" points="2291.39 2141.1 2021.21 2032.17 1989.42 2054.02 2259.6 2162.95 2291.39 2141.1"/><path class="cls-13" d="M1478.72,1813.46l459.07,185.08L1841.05,2065,1382,1879.94Zm.79,9.26-80.33,55.21,441.09,177.83,80.32-55.21-441.08-177.83Z"/><ellipse class="cls-14" cx="1481.43" cy="2500.93" rx="311.47" ry="166.46" transform="translate(-384.84 272.4) rotate(-9.3)"/><ellipse class="cls-15" cx="1166.78" cy="2374.07" rx="311.47" ry="166.46" transform="translate(-368.47 219.86) rotate(-9.3)"/><path class="cls-16" d="M1475.15,2333.68c-79.32,10.1-158,36.66-217,77.22s-87.22,87.46-85.06,130.4c79.32-10.09,158-36.64,217-77.2S1477.31,2376.63,1475.15,2333.68Z"/><polygon class="cls-17" points="1466.29 2855.82 515.01 2472.29 508.24 2476.94 1459.53 2860.47 1466.29 2855.82"/><polygon class="cls-13" points="2221.63 2189.05 1951.45 2080.12 1919.65 2101.97 2189.84 2210.9 2221.63 2189.05"/><path class="cls-20" d="M4230.08,1958.8s44.62,15.92,84.85,4.54,84.59-71.31,85.94-219.25,46.22-472.51,152.8-493l-522.54-154.2-74.7,327.66,82.29,384.31,147.84,125.32Z"/><path class="cls-21" d="M4230.08,1958.8s44.62,15.92,84.85,4.54,84.59-71.31,85.94-219.25,46.22-472.51,152.8-493l-522.54-154.2-74.7,327.66,82.29,384.31,147.84,125.32Z"/><path class="cls-22" d="M3984.88,1070.13s90.28-.23,109,114.44,10.31,529.91,25.68,603.91,35.43,119.58,112.31,172.09l-541.78-276.42-95.28-547.24Z"/><path class="cls-23" d="M3741,1889.74,922.6,2634.38l-115,74A59.4,59.4,0,0,0,795,2719.29l1379.09,472a224.5,224.5,0,0,0,212.46-36.72c319.62-254,1264.78-1036.28,1264.78-1036.28l92.83-211.49Z"/><path class="cls-24" d="M3875.29,1401.1s33.65,130.45,38.33,163.61c3.08,22-17.74,127.74-26.86,148-13.21,29.35-53.93,19.19-83.38,68-53.13,88-103.12,244.75-126.74,297.21a134.93,134.93,0,0,1-39.84,50.82L2383.71,3109.11a231.67,231.67,0,0,1-218.65,36.53c-289.87-100.35-1026.45-343.17-1268.49-427-48.1-16.65-89.4-73-95.85-123.64-4.49-35.26-6.13-68.56-6.13-68.56Z"/><path class="cls-25" d="M3910.35,1606.36c-5.84,39.59-17.4,92.61-23.59,106.34-13.22,29.36-53.93,19.2-83.38,68-53.12,88-103.12,244.75-126.75,297.21a134.8,134.8,0,0,1-39.83,50.81L2985,2638.65c-79.28,6.37-148.72,2.27-169.59-25.69-2.48-3.32,30.44-20.41,33.89-22.41,47.26-27.35,90.66-63.74,135.66-94.7,110.68-76.17,215.68-162.23,328.73-234.83,83.82-53.83,179.05-87.53,262.7-138.65C3791.89,1990.68,3588.47,1689.83,3910.35,1606.36Z"/><path class="cls-26" d="M2251.14,1051.57l130.78-78.23a71.29,71.29,0,0,1,54.43-7.86c171.65,44.23,1126.75,321.6,1405.71,402.72a48.7,48.7,0,0,1,21.31,80.61c-44.1,45.5-100.11,100.47-110.1,96.9C3736.37,1539.7,2251.14,1051.57,2251.14,1051.57Z"/><path class="cls-27" d="M3741.63,1339c30.9,9,58.63,17,82.42,24l-62.09,42.1-32.88-31Z"/><path class="cls-28" d="M2058.73,1524.53a75.31,75.31,0,0,1-16.28,17.65l-1224.71,962a43.45,43.45,0,0,0,13.21,75.4l1372.66,450.71a116.63,116.63,0,0,0,108.44-19.12c236.85-186,1249.42-981.39,1249.42-981.39l.28.09s152.05-373.9,206.09-506.95c2.8-6.89-1.21-30.58-11.75-47.82-10.22-16.7-26.84-27-33.67-29.26-240.11-78.54-1047.76-293.83-1290.85-373.35a83.08,83.08,0,0,0-95.11,33.14C2262.53,1217.12,2094.39,1470.74,2058.73,1524.53Z"/><path class="cls-29" d="M2051.91,1506.61a75.31,75.31,0,0,1-16.28,17.65l-1224.71,962a43.43,43.43,0,0,0,13.21,75.39c265.13,87.06,1136.77,373.27,1372.65,450.71a116.63,116.63,0,0,0,108.45-19.12c236.85-186,1249.42-981.39,1249.42-981.39l.28.09s123.37-301.48,185.44-448.74c5.69-13.49,26.76-55.47,17.28-81.81-14.1-39.23-64-45.78-77.83-50.32-240.11-78.55-1097.94-308.33-1341-387.85-35.53-11.63-77.27-11.2-98,20C2166.93,1174.73,2087.57,1452.83,2051.91,1506.61Z"/><path class="cls-30" d="M2263.22,1043.53a56.48,56.48,0,0,0-22.37,19.71c-73.92,111.5-153.28,389.59-188.94,443.37a75.16,75.16,0,0,1-16.28,17.66L866.09,2442.92l-27,123.65,17.58,5.77c75.67-57.87,138.56-140.42,209.33-202.84,237-209.06,694.74-636.08,1017.41-681.24,109.21-15.3,219.56,27.51,324.33,55.16,142,37.48,283.3,63.1,422.74,112,52.49,18.43,249.32,76.08,256.09,66.9,2.84-3.86-18.74-39.29-20.48-40.4-62.8-40.34-117.89-50.86-190-72.25-86-25.51-170.68-56.37-256.38-83.17-90.74-28.37-483.27-98.16-535.37-156.75-71.83-80.8,244.16-471.13,186.14-520.69A90.71,90.71,0,0,0,2263.22,1043.53Z"/><ellipse class="cls-31" cx="3044.39" cy="1903.21" rx="39.25" ry="230.56" transform="translate(273.96 4186.89) rotate(-71.51)"/><path class="cls-18" d="M2330.62,2818.68c8.65-6.72,6.75-15-4.23-18.62l-149.14-48.32c-11-3.56-26.93-1-35.58,5.7l-31.34,24.3c-8.65,6.7-6.76,15,4.23,18.6l149.13,48.34c11,3.56,26.93,1,35.58-5.7Zm-251-81.35c8.65-6.71,6.76-15-4.23-18.6L1926.3,2670.4c-11-3.56-26.93-1-35.58,5.7l-31.35,24.3c-8.65,6.71-6.75,15,4.23,18.6l149.13,48.34c11,3.57,26.93,1,35.58-5.7Zm465.39-75c15.61-12.11,12.19-27.15-7.62-33.58l-269.09-87.2c-19.82-6.43-48.59-1.83-64.2,10.28l-56.56,43.85c-15.61,12.11-12.19,27.15,7.64,33.56l269.08,87.22c19.82,6.43,48.58,1.81,64.19-10.28Zm-452.8-146.76c15.61-12.12,12.19-27.15-7.63-33.58l-269.08-87.2c-19.83-6.44-48.59-1.83-64.2,10.28l-56.56,43.85c-15.61,12.11-12.19,27.15,7.64,33.58l269.07,87.2c19.83,6.43,48.59,1.81,64.2-10.29Zm655.13-10.12c15.61-12.1,12.2-27.15-7.63-33.57l-269.08-87.22c-19.82-6.43-48.59-1.8-64.19,10.29l-56.57,43.85c-15.6,12.11-12.18,27.15,7.64,33.58l269.09,87.2c19.81,6.43,48.58,1.83,64.19-10.29ZM1639.45,2368.81c15.61-12.1,12.19-27.15-7.64-33.57L1362.73,2248c-19.82-6.43-48.59-1.8-64.19,10.29L1242,2302.16c-15.6,12.11-12.18,27.15,7.64,33.58l269.08,87.2c19.83,6.43,48.59,1.83,64.2-10.29Zm655.14-10.13c15.6-12.09,12.18-27.13-7.64-33.56l-269.08-87.22c-19.82-6.41-48.59-1.81-64.2,10.29l-56.56,43.86c-15.61,12.1-12.19,27.14,7.64,33.57l269.08,87.22c19.82,6.41,48.59,1.8,64.19-10.31Zm655.13-10.12c15.61-12.09,12.18-27.13-7.64-33.56L2673,2227.8c-19.82-6.43-48.59-1.83-64.2,10.27l-56.57,43.86c-15.61,12.1-12.18,27.15,7.64,33.57L2829,2402.71c19.83,6.42,48.6,1.81,64.21-10.28ZM1841.78,2211.92c15.61-12.09,12.19-27.13-7.63-33.56l-269.08-87.21c-19.83-6.42-48.59-1.82-64.2,10.29l-56.56,43.85c-15.61,12.1-12.19,27.13,7.63,33.57L1721,2266.08c19.83,6.41,48.59,1.8,64.2-10.29Zm655.14-10.1c15.61-12.11,12.18-27.15-7.63-33.58L2220.2,2081c-19.82-6.42-48.59-1.81-64.19,10.29l-56.57,43.85c-15.6,12.1-12.18,27.15,7.64,33.56L2376.16,2256c19.82,6.42,48.58,1.81,64.19-10.28Zm627.8,5.5c7.52-5.83,6.49-12.9-2.31-15.75l-198.81-64.43c-8.81-2.86-22.07-.44-29.6,5.4l-27.29,21.16c-7.55,5.84-6.5,12.9,2.31,15.75l198.81,64.43c8.8,2.87,22.07.44,29.6-5.4ZM2790.8,2099.1c7.53-5.84,6.5-12.9-2.31-15.75l-198.81-64.44c-8.8-2.85-22.07-.43-29.6,5.41l-27.29,21.16c-7.52,5.84-6.49,12.9,2.31,15.75l198.81,64.44c8.81,2.85,22.07.43,29.6-5.41Zm-746.68-44c15.6-12.1,12.18-27.14-7.64-33.57l-269.08-87.21c-19.82-6.42-48.59-1.81-64.2,10.29l-56.56,43.85c-15.61,12.1-12.18,27.15,7.64,33.57l269.08,87.21c19.82,6.43,48.59,1.82,64.2-10.28Zm412.78-64.17c7.53-5.84,6.5-12.9-2.32-15.75l-198.81-64.44c-8.8-2.86-22.07-.43-29.6,5.41l-27.29,21.15c-7.53,5.84-6.49,12.9,2.32,15.76l198.8,64.43c8.82,2.86,22.08.43,29.61-5.4ZM2123,1882.65c7.53-5.84,6.49-12.89-2.32-15.75l-198.81-64.44c-8.8-2.85-22.07-.43-29.6,5.41L1865,1829c-7.53,5.84-6.49,12.9,2.31,15.75l198.81,64.44c8.81,2.85,22.08.43,29.61-5.41Z"/><path class="cls-32" d="M2329.31,2790.85c8.53-6.72,12.47-43.3,1.62-46.84l-153-20.1c-10.84-3.56-26.58-1-35.12,5.7l-31.72-1.81c-8.54,6.71-5.89,41.15,5,44.71l147.2,48.34c10.85,3.56,26.58,1,35.12-5.7Zm-247.72-81.35c8.54-6.71,12.45-42.24,1.61-45.8l-153-21.12c-10.85-3.57-26.58-1-35.12,5.7l-32.42-1.92c-8.53,6.7-5.19,41.25,5.65,44.81l147.21,48.34c10.84,3.57,26.58,1,35.12-5.7Zm459.37-75c15.41-12.11,18.82-52.84-.74-59.27l-272.39-61.51c-19.57-6.43-48-1.83-63.37,10.28l-57.37,20.61c-15.41,12.12-10.49,50.39,9.08,56.8l265.61,87.22c19.56,6.43,47.95,1.81,63.36-10.28ZM2094,2487.74c15.4-12.11,12-27.15-7.54-33.58l-265.6-87.2c-19.57-6.43-48-1.83-63.37,10.28l-60.31,23.3c-15.4,12.09-7.55,47.7,12,54.13l265.6,87.2c19.57,6.43,48,1.81,63.37-10.28Zm646.67-10.12c15.41-12.1,19-52.77-.53-59.18l-272.61-61.6c-19.57-6.44-48-1.81-63.37,10.28l-56.45,17c-15.41,12.1-11.41,54,8.16,60.46l265.61,87.2c19.56,6.43,48,1.83,63.36-10.29ZM1647.07,2341c15.4-12.1,18.71-51.8-.86-58.21l-272.29-62.57c-19.56-6.43-48-1.81-63.37,10.28l-59,20c-15.4,12.11-8.82,51,10.74,57.46l265.61,87.2c19.56,6.43,48,1.83,63.36-10.28Zm646.67-10.12c15.4-12.1,12-27.13-7.54-33.57l-265.6-87.22c-19.57-6.41-48-1.8-63.37,10.29l-56.38,19c-15.41,12.11-11.48,52,8.09,58.43l265.6,87.22c19.57,6.41,48,1.81,63.37-10.31Zm646.67-10.13c15.41-12.09,17.8-57.56-1.76-64L2667.27,2200c-19.56-6.43-48-1.83-63.36,10.27l-58.58,20.13c-15.4,12.1-9.29,50.88,10.28,57.3l265.6,87.22c19.58,6.41,48,1.81,63.38-10.29ZM1846.78,2184.1c15.41-12.1,18.71-52.82-.85-59.26l-272.29-61.52c-19.56-6.42-48-1.82-63.37,10.29l-60,20.16c-15.4,12.1-7.82,50.83,11.74,57.26l265.61,87.22c19.56,6.41,48,1.81,63.36-10.29ZM2493.46,2174c15.41-12.11,19.8-52.11.22-58.54l-273.36-62.25c-19.57-6.42-48-1.81-63.37,10.29l-56.74,18.61c-15.4,12.11-11.12,52.39,8.45,58.81l265.6,87.22c19.57,6.41,47.95,1.8,63.36-10.29Zm619.69,5.5c7.43-5.83,11-40.92,2.27-43.77l-200.8-36.41c-8.69-2.86-21.78-.43-29.21,5.4l-27.41-6.2c-7.43,5.84-5.94,40.26,2.75,43.11L3057,2206.06c8.69,2.86,21.79.43,29.22-5.41Zm-329.61-108.22c7.43-5.84,11.19-40.07,2.5-42.93l-201-37.26c-8.69-2.85-21.78-.43-29.21,5.41l-28-4.67c-7.43,5.84-5.39,38.73,3.3,41.58l196.24,64.44c8.69,2.85,21.78.43,29.22-5.41Zm-737-44c15.41-12.11,19.1-54.35-.47-60.77l-272.67-60c-19.56-6.43-48-1.82-63.37,10.28l-59.21,19.69c-15.41,12.1-8.65,51.31,10.92,57.73l265.6,87.21c19.57,6.43,48,1.82,63.37-10.28ZM2454,1963.05c7.43-5.84,11-40.71,2.26-43.56l-200.79-36.63c-8.7-2.85-21.79-.43-29.22,5.41l-28.61-4.78c-7.44,5.84-4.74,38.83,4,41.69l196.24,64.43c8.7,2.86,21.8.44,29.23-5.4Zm-329.6-108.23c7.43-5.83,11.23-41.25,2.53-44.11l-201.06-36.07c-8.69-2.86-21.79-.43-29.22,5.4l-28-5.74c-7.44,5.84-5.31,39.8,3.39,42.65l196.24,64.44c8.69,2.85,21.79.43,29.22-5.41Z"/><path class="cls-26" d="M2330.67,2760c8.54-6.73,6.67-15.06-4.18-18.62l-147.2-48.32c-10.85-3.57-26.59-1-35.13,5.7l-30.94,24.3c-8.54,6.7-6.67,15,4.18,18.59L2264.61,2790c10.84,3.56,26.58,1,35.12-5.7ZM2083,2678.63c8.54-6.7,6.67-15-4.17-18.6l-147.21-48.32c-10.84-3.56-26.58-1-35.12,5.7l-30.94,24.3c-8.54,6.7-6.67,15,4.17,18.6l147.21,48.34c10.85,3.56,26.58,1,35.12-5.7Zm459.37-75c15.41-12.11,12-27.14-7.52-33.58l-265.61-87.2c-19.56-6.43-48-1.82-63.36,10.29L2150,2537c-15.4,12.11-12,27.15,7.54,33.56l265.61,87.22c19.56,6.43,48,1.81,63.36-10.29Zm-446.94-146.76c15.41-12.11,12-27.15-7.54-33.58l-265.6-87.2c-19.57-6.43-48-1.83-63.37,10.29L1703,2390.23c-15.41,12.11-12,27.14,7.54,33.58l265.6,87.2c19.57,6.43,48,1.81,63.37-10.29Zm646.67-10.12c15.41-12.09,12-27.15-7.54-33.56L2468.91,2326c-19.56-6.43-48-1.81-63.37,10.29l-55.83,43.84c-15.4,12.12-12,27.15,7.54,33.58l265.61,87.21c19.56,6.43,48,1.82,63.37-10.29ZM1648.43,2310.11c15.4-12.09,12-27.15-7.54-33.56l-265.6-87.22c-19.57-6.43-48-1.81-63.37,10.29l-55.83,43.84c-15.41,12.12-12,27.15,7.54,33.58l265.6,87.21c19.57,6.43,48,1.82,63.37-10.29ZM2295.1,2300c15.41-12.09,12-27.13-7.54-33.56L2022,2179.21c-19.57-6.41-48-1.81-63.37,10.29l-55.83,43.86c-15.41,12.1-12,27.13,7.54,33.56l265.6,87.22c19.57,6.42,48,1.81,63.37-10.3Zm646.67-10.12c15.41-12.1,12-27.13-7.54-33.56l-265.6-87.2c-19.56-6.43-48-1.83-63.36,10.26l-55.84,43.87c-15.41,12.09-12,27.15,7.54,33.56l265.6,87.22c19.58,6.41,48,1.81,63.38-10.28ZM1848.15,2153.23c15.4-12.09,12-27.13-7.54-33.56L1575,2032.46c-19.57-6.43-48-1.82-63.37,10.28l-55.83,43.86c-15.41,12.09-12,27.13,7.53,33.56L1729,2207.38c19.57,6.41,48,1.81,63.37-10.28Zm646.68-10.1c15.4-12.12,12-27.15-7.55-33.58l-265.6-87.21c-19.57-6.43-48-1.82-63.37,10.28l-55.83,43.86c-15.41,12.1-12,27.15,7.54,33.56l265.6,87.22c19.57,6.41,48,1.81,63.36-10.29Zm619.68,5.5c7.43-5.83,6.41-12.9-2.28-15.75L2916,2068.44c-8.68-2.85-21.78-.43-29.21,5.41L2859.83,2095c-7.45,5.84-6.41,12.89,2.28,15.74l196.25,64.44c8.68,2.87,21.78.44,29.21-5.41Zm-329.6-108.22c7.43-5.84,6.41-12.9-2.28-15.75l-196.25-64.44c-8.69-2.86-21.78-.43-29.21,5.41l-26.94,21.15c-7.43,5.84-6.41,12.9,2.28,15.76L2728.75,2067c8.69,2.86,21.79.43,29.22-5.41Zm-737-44.05c15.4-12.1,12-27.14-7.54-33.57l-265.61-87.21c-19.56-6.42-48-1.82-63.36,10.29l-55.83,43.85c-15.41,12.1-12,27.14,7.54,33.57l265.6,87.21c19.57,6.42,48,1.81,63.37-10.29Zm407.45-64.18c7.43-5.84,6.41-12.89-2.29-15.75L2256.79,1852c-8.69-2.86-21.79-.44-29.22,5.4l-26.94,21.16c-7.43,5.84-6.41,12.9,2.29,15.75l196.24,64.44c8.7,2.85,21.79.43,29.22-5.41ZM2125.72,1824c7.43-5.84,6.41-12.9-2.29-15.75l-196.24-64.44c-8.69-2.85-21.78-.43-29.22,5.41L1871,1770.34c-7.44,5.84-6.41,12.89,2.28,15.75l196.24,64.43c8.7,2.86,21.79.44,29.22-5.4Z"/><path class="cls-26" d="M3676.78,1633.06c13.22-33.59,2.32-67.74-24.29-76.21L2278.43,1119.48c-26.63-8.47-59,11.92-72.19,45.51l-112.66,286.32c-13.22,33.59-2.33,67.75,24.3,76.22l1374,437.36c26.62,8.48,59-11.91,72.19-45.5Z"/><path class="cls-33" d="M3676.78,1633.06c13.22-33.59,2.32-67.74-24.29-76.21L2278.43,1119.48c-26.63-8.47-59,11.92-72.19,45.51l-112.66,286.32c-13.22,33.59-2.33,67.75,24.3,76.22l1374,437.36c26.62,8.48,59-11.91,72.19-45.5Z"/><path class="cls-34" d="M2339.66,1359.67l8.26-20.27a87.64,87.64,0,0,0,20.53,4.1c5.9.67,12.22.27,17.25-3,4.15-1.1,7-5,10.91-8.59.87-2.14,2.82-3.93,3.69-6.06l25.13,8-61.37,150.47-31.68-10.06,42.22-103.51Z"/><path class="cls-34" d="M2428.67,1471.11c7.2-8.57,22.47-15.77,42.12-21.59,18.55-6.16,29.9-9.79,36-12.68,9.16-4.32,15.49-10.75,18.53-18.22a26.57,26.57,0,0,0,1.07-17.74c-2.63-5.65-6.13-9.17-12.69-11.26-9.83-3.12-17.67-2-24,4.43-2.4,2.86-6.11,8.91-10.68,17.11l-28.4-9c5.22-12.8,11.76-22.79,19.18-28.87q22.24-18.26,51.74-8.88,24.55,7.8,34.09,25.29c5.26,11.31,5.94,24.78-.16,39.72a49.14,49.14,0,0,1-22.68,25.35c-7,5-16.15,9.34-28.58,12.61l-16.59,4.39c-8.74,3.24-15.93,5.78-20.08,6.88-3.06,1.44-6.55,3.94-9.59,5.39l66.62,21.15-10.88,26.68-104.86-33.29C2413.19,1487.89,2420.82,1478.26,2428.67,1471.11Z"/><path class="cls-34" d="M2774.43,1493.67l8.27-20.27a87.48,87.48,0,0,0,20.52,4.1,29.44,29.44,0,0,0,18.34-2.62c3.06-1.44,7-5,9.82-8.94a15.5,15.5,0,0,0,3.69-6l25.13,8-61.36,150.47-30.59-9.71,42.22-103.52Z"/><path class="cls-34" d="M2889.64,1601.36c-1.52,6.76-1.51,12.78.47,17s6.55,8.11,13.11,10.19,14.42,1,19.42-2.28a34.62,34.62,0,0,0,14.4-17.12c3.05-7.47,3.9-15.63,1.71-22.36-1.1-6.37-5.69-10.24-13.33-12.67-3.28-1-6.56-2.08-10.28-2.05-5.23.75-9.81,2.9-14.83,6.13l-25.78-9.39,44.87-79.78,84.11,26.71-10.45,25.61-63.34-20.11-18.53,30.28a112.64,112.64,0,0,0,13.1-1.87c5.24-.74,10.7,1,17.25,3.08,13.11,4.16,22.29,11.89,28,22.14,6.34,11.65,5.49,25.85-.6,40.79a68.48,68.48,0,0,1-28.34,33.19c-13.1,7.89-29.48,8.72-46.94,3.18-15.3-4.86-26-11.88-31.7-22.12-6.35-11.66-7.46-24.07-2.89-38.29Z"/><path class="cls-34" d="M3313.89,1641.19c-7.19,2.53-15.71,8.27-29.23,17.23a256.84,256.84,0,0,0-33.59,27.91c-8.3,8.22-15.91,17.85-26,30.34a156.9,156.9,0,0,0-17.86,31.69l-31.67-10c12-26.34,32.46-52.38,61.69-75.64,18.32-14.68,31.84-23.64,42.55-28.69l-76.47-24.28,12-26.33,108.13,34.33Z"/><path class="cls-34" d="M3321,1738.67c-1.52,6.75-1.51,12.78.47,17s6.55,8.12,13.11,10.2a22.52,22.52,0,0,0,19.43-2.28,34.69,34.69,0,0,0,14.39-17.12,41.91,41.91,0,0,0,2.8-22c-2.18-6.71-6.78-10.58-14.42-13-3.28-1-6.56-2.08-10.27-2.06a25.37,25.37,0,0,0-13.75,6.49l-26.87-9.74,44.87-79.78,84.11,26.7-10.45,25.61-62.25-19.76-18.53,30.29c5.25-.75,9.39-1.85,13.1-1.88,5.24-.73,9.62.65,16.16,2.73,13.11,4.16,22.29,11.89,28,22.15,6.34,11.65,6.59,26.19.49,41.13-5.66,13.88-16.34,25-29.43,32.84s-29.48,8.73-46.94,3.18c-15.29-4.85-26-11.87-31.7-22.11-6.34-11.67-6.37-23.73-1.8-38Z"/><path class="cls-35" d="M2096.7,1511.32a76,76,0,0,1,5.28-35.46l112.65-286.33c13.22-33.59,45.57-54,72.19-45.5l1374,437.36a39.78,39.78,0,0,1,21.18,16.21c-2-19.49-12.6-35.35-29.58-40.75l-1374-437.36c-26.63-8.48-59,11.91-72.2,45.5l-112.65,286.32C2084.79,1473.63,2086.65,1496.2,2096.7,1511.32Z"/><path class="cls-36" d="M3368.4,1466.43l-637,256.4L3124.56,1848l554.11-265c-4.7-12.54-13.73-22.15-26.2-26.11Zm-410.21-130.57-729.74,226.87-109.86-35,734.5-225.36Zm-816.1-7.85-48.51,123.3a79.46,79.46,0,0,0-5.54,25.09l659.57-207.57L2543,1203.69Z"/><ellipse class="cls-37" cx="2988.72" cy="2001.71" rx="25.85" ry="75.73" transform="translate(189.72 4261.12) rotate(-72.72)"/><ellipse class="cls-37" cx="2511.79" cy="1832.58" rx="25.85" ry="75.73" transform="translate(15.94 3686.8) rotate(-72.72)"/><ellipse class="cls-37" cx="2763.18" cy="1921.04" rx="25.85" ry="75.73" transform="translate(108.2 3989.03) rotate(-72.72)"/><ellipse class="cls-37" cx="2286.25" cy="1751.92" rx="25.85" ry="75.73" transform="matrix(0.3, -0.95, 0.95, 0.3, -65.61, 3414.73)"/><path class="cls-20" d="M2398.4,1008.37s5.16-249.17,200.94-334.65l1385.54,396.41s-201,42.85-229.18,334Z"/><polygon class="cls-38" points="2641.9 725.68 3814.47 1053.26 3808.02 1061.09 2635.46 733.52 2641.9 725.68"/><path class="cls-39" d="M2732.42,863.46l25.86,7.62-30.62,104.53,63.28,18.66-6.7,22.88-89.14-26.27Z"/><path class="cls-39" d="M2848,912c13.77-7.3,28.68-8.64,44.72-3.91,21.4,6.3,34.48,17.84,40.17,34.77,3,9.44,4.28,18.45,1.95,26.41l-26.74-7.88c0-6.7-.42-11.79-2.18-15.7-2.83-6.86-10-12-19-14.63-9.8-2.88-19-1.31-26.61,4.89s-13.54,16.5-17.73,30.81-4.63,25.73-.5,34.73c3.26,8.72,10.26,14.57,19.17,17.2s16.94,1.69,24.07-2.81c3.64-2.52,6.87-6.91,10.56-12.91l26.74,7.88c-6.74,13.06-15.38,22.76-27.75,28.63s-25.22,6.75-40.37,2.28q-26.75-7.87-37.6-30.32t-1.83-53.28C2821.6,935.89,2832.85,920.65,2848,912Z"/><path class="cls-39" d="M3051.55,957.53l38.32,11.29-37.32,127.42-25-7.35,25.25-86.2,3-10.37,3-10.37-55.39,99.84-25.86-7.62,8.15-113.77-3,10.37-3,10.37-25.25,86.2-25-7.36,37.33-127.42,38.33,11.3-6.16,107Z"/><path class="cls-39" d="M3186.05,1050.4l-6.65,22.72-93.59-27.59,6.65-22.71Zm-11.84,40.42-6.65,22.71L3074,1085.94l6.65-22.71Z"/><path class="cls-39" d="M3206.44,1099.83c-1.47,5-1.79,9.38-1,13.22.89,6.87,5.38,11.4,13.4,13.76a17.47,17.47,0,0,0,13.92-1.24c4.53-2.26,7.73-6.56,9.53-12.73,2.41-8.23,1.37-14.56-5-19.43-3.13-2.57-9.13-5.21-17.15-7.58l5.16-17.62c8,2.28,13.64,3,17.62,2.67,6.06-.83,10.17-5,12.32-12.3,1.42-4.83,1.65-8.93-1-13-1.81-3.75-4.93-6.32-10.28-7.89s-10.32-1.1-14.1,1.86a25.6,25.6,0,0,0-8.79,13.44l-22.28-6.57a59.9,59.9,0,0,1,7.86-16.91c4.12-4.13,8.13-7.9,13.79-10.71a37.34,37.34,0,0,1,13.55-3.29,49.68,49.68,0,0,1,16.73,2.41c11.59,3.41,20.5,9.34,25.82,17.62,6.2,8.62,7.32,18,4.28,28.36a28.71,28.71,0,0,1-12.6,16.59,23.45,23.45,0,0,1-9.93,4.16c1.78.52,4.8,3.45,8.13,8.61,4.53,7.65,4.88,16.4,1.92,26.5a42.54,42.54,0,0,1-18.9,24.84c-9.48,5.94-22.25,6.55-36.51,2.35-17.84-5.26-27.71-14.48-31.45-28.21-1.76-7.22-1.18-15.79.84-26Z"/><path class="cls-39" d="M3318.7,1156.24c7.13,2.1,12.69-.34,17.62-7.24q6-10.62,12.33-32.21,6.64-22.66,7.16-34.32c-.53-8.12-3.94-13-11.07-15.11-8-2.37-13.53-.1-18.35,6.44-3.91,6.71-9,17.37-13.38,32.48a149.83,149.83,0,0,0-6.11,34C3307.32,1148.8,3310.69,1153.87,3318.7,1156.24Zm55.81-31.83c-6.05,20.65-14.28,35.52-23.79,44.86s-22.75,11.55-37.91,7.08c-16-4.73-26-13.78-28.95-26.79s-1.87-30,4.19-50.64,14.3-35.6,23.84-45,22.75-11.55,38.8-6.82c15.15,4.47,25.12,13.43,28,26.53S3380.58,1103.66,3374.51,1124.41Z"/><path class="cls-39" d="M3416.76,1185.14c7.12,2.1,12.68-.34,17.61-7.24a150,150,0,0,0,13.24-32c4.42-15.11,5.91-26.81,6.25-34.58-.53-8.12-3.94-13-11.07-15.11s-13.53-.1-18.35,6.44c-3.9,6.72-9,17.37-13.38,32.48a150.37,150.37,0,0,0-6.11,34C3405.37,1177.7,3409.63,1183,3416.76,1185.14Zm55.8-31.83c-6,20.66-14.27,35.52-23.79,44.86s-21.86,11.82-37.91,7.08-26-13.77-29-26.79-1.86-30,4.19-50.64,14.3-35.6,23.84-45,22.76-11.55,38.8-6.82,25.12,13.43,28.05,26.53S3478.64,1132.56,3472.56,1153.31Z"/><polygon class="cls-38" points="2619.51 752.92 3792.07 1080.5 3785.63 1088.34 2613.07 760.76 2619.51 752.92"/><polygon class="cls-40" points="2669.58 1031 3442.16 1246.83 3435.71 1254.67 2663.14 1038.84 2669.58 1031"/><path class="cls-41" d="M2459.62,832.49s24.81-115.4,139.72-158.77l1385.54,396.41s-99.9,18-158.85,153.54Z"/></g></g></svg>