<?xml version="1.0" encoding="UTF-8" standalone="no"?><!DOCTYPE svg PUBLIC "-//W3C//DTD SVG 1.1//EN" "http://www.w3.org/Graphics/SVG/1.1/DTD/svg11.dtd"><svg width="4000px" height="2500px" version="1.1" xmlns="http://www.w3.org/2000/svg" xmlns:xlink="http://www.w3.org/1999/xlink" xml:space="preserve" xmlns:serif="http://www.serif.com/" style="fill-rule:evenodd;clip-rule:evenodd;stroke-linejoin:round;stroke-miterlimit:2;"><g id="C47"><g transform="matrix(1.0007,0,0,1.0007,1.66429,0.0723275)"><rect x="111.817" y="218.725" width="3805.79" height="2107.56" style="fill:rgb(174,211,240);"/></g><g transform="matrix(2.2689,0,0,2.2689,-4581.63,-2928.61)"><path d="M2377.3,2316.71C2379.64,2311.33 2382.13,2306.09 2384.8,2301C2430.93,2212.82 2550.23,2146.78 2640.74,2116.17C2732.03,2085.3 2857.92,2079.42 2951.22,2103.61C3019.15,2121.22 3088.91,2131.97 3156.35,2150.87C3301.94,2191.68 3485.19,2276.45 3639.2,2232.12C3674.81,2221.87 3715.54,2205.74 3747.92,2183.79L3747.92,2316.71L2377.3,2316.71ZM3747.92,1581.06C3697.84,1540.21 3635.46,1523.62 3572.34,1511.82C3276.96,1456.58 3070.39,1572.75 2786.14,1605.58C2563.89,1631.24 2347.66,1539.08 2189.12,1387.17L3747.92,1387.17L3747.92,1581.06Z" style="fill:rgb(195,220,243);"/></g><g transform="matrix(1.0007,0,0,1.0007,1.66429,0.0723275)"><rect x="111.817" y="218.725" width="3805.79" height="2107.56" style="fill:none;"/><clipPath id="_clip1"><rect x="111.817" y="218.725" width="3805.79" height="2107.56"/></clipPath><g clip-path="url(#_clip1)"><g transform="matrix(1.27114,6.50854e-18,8.24415e-17,1.49751,-2392.24,-487.488)"><g transform="matrix(1,0,0,0.735448,0,146.031)"><rect x="1770.7" y="551.996" width="1785.02" height="13.393" style="fill:white;fill-opacity:0.45;"/></g><g transform="matrix(1,0,0,0.735448,0,237.418)"><rect x="1770.7" y="551.996" width="1785.02" height="13.393" style="fill:white;fill-opacity:0.45;"/></g><g transform="matrix(1,0,0,0.735448,0,328.805)"><rect x="1770.7" y="551.996" width="1785.02" height="13.393" style="fill:white;fill-opacity:0.45;"/></g><g transform="matrix(1,0,0,0.735448,0,420.192)"><rect x="1770.7" y="551.996" width="1785.02" height="13.393" style="fill:white;fill-opacity:0.45;"/></g><g transform="matrix(1,0,0,0.735448,0,511.579)"><rect x="1770.7" y="551.996" width="1785.02" height="13.393" style="fill:white;fill-opacity:0.45;"/></g><g transform="matrix(1,0,0,0.735448,0,602.966)"><rect x="1770.7" y="551.996" width="1785.02" height="13.393" style="fill:white;fill-opacity:0.45;"/></g><g transform="matrix(1,0,0,0.735448,0,694.353)"><rect x="1770.7" y="551.996" width="1785.02" height="13.393" style="fill:white;fill-opacity:0.45;"/></g><rect x="1888.91" y="451.812" width="9.909" height="763.69" style="fill:white;fill-opacity:0.55;"/><g transform="matrix(1,0,0,1,116.532,0)"><rect x="1888.91" y="451.812" width="9.909" height="763.69" style="fill:white;fill-opacity:0.55;"/></g><g transform="matrix(1,0,0,1,233.065,0)"><rect x="1888.91" y="451.812" width="9.909" height="763.69" style="fill:white;fill-opacity:0.55;"/></g><g transform="matrix(1,0,0,1,349.597,0)"><rect x="1888.91" y="451.812" width="9.909" height="763.69" style="fill:white;fill-opacity:0.55;"/></g><g transform="matrix(1,0,0,1,466.129,0)"><rect x="1888.91" y="451.812" width="9.909" height="763.69" style="fill:white;fill-opacity:0.55;"/></g><g transform="matrix(1,0,0,1,582.661,0)"><rect x="1888.91" y="451.812" width="9.909" height="763.69" style="fill:white;fill-opacity:0.55;"/></g><g transform="matrix(1,0,0,1,699.194,0)"><rect x="1888.91" y="451.812" width="9.909" height="763.69" style="fill:white;fill-opacity:0.55;"/></g><g transform="matrix(1,0,0,1,815.726,0)"><rect x="1888.91" y="451.812" width="9.909" height="763.69" style="fill:white;fill-opacity:0.55;"/></g><g transform="matrix(1,0,0,1,932.258,0)"><rect x="1888.91" y="451.812" width="9.909" height="763.69" style="fill:white;fill-opacity:0.55;"/></g><g transform="matrix(1,0,0,1,1048.79,0)"><rect x="1888.91" y="451.812" width="9.909" height="763.69" style="fill:white;fill-opacity:0.55;"/></g><g transform="matrix(1,0,0,1,1165.32,0)"><rect x="1888.91" y="451.812" width="9.909" height="763.69" style="fill:white;fill-opacity:0.55;"/></g><g transform="matrix(1,0,0,1,1281.85,0)"><rect x="1888.91" y="451.812" width="9.909" height="763.69" style="fill:white;fill-opacity:0.55;"/></g><g transform="matrix(1,0,0,1,1398.39,0)"><rect x="1888.91" y="451.812" width="9.909" height="763.69" style="fill:white;fill-opacity:0.55;"/></g><g transform="matrix(1,0,0,1,1514.92,0)"><rect x="1888.91" y="451.812" width="9.909" height="763.69" style="fill:white;fill-opacity:0.55;"/></g></g><g transform="matrix(1.27114,6.50854e-18,8.24415e-17,1.49751,-327.19,-487.488)"><g transform="matrix(1,0,0,0.735448,0,146.031)"><rect x="1770.7" y="551.996" width="1785.02" height="13.393" style="fill:white;fill-opacity:0.45;"/></g><g transform="matrix(1,0,0,0.735448,0,237.418)"><rect x="1770.7" y="551.996" width="1785.02" height="13.393" style="fill:white;fill-opacity:0.45;"/></g><g transform="matrix(1,0,0,0.735448,0,328.805)"><rect x="1770.7" y="551.996" width="1785.02" height="13.393" style="fill:white;fill-opacity:0.45;"/></g><g transform="matrix(1,0,0,0.735448,0,420.192)"><rect x="1770.7" y="551.996" width="1785.02" height="13.393" style="fill:white;fill-opacity:0.45;"/></g><g transform="matrix(1,0,0,0.735448,0,511.579)"><rect x="1770.7" y="551.996" width="1785.02" height="13.393" style="fill:white;fill-opacity:0.45;"/></g><g transform="matrix(1,0,0,0.735448,0,602.966)"><rect x="1770.7" y="551.996" width="1785.02" height="13.393" style="fill:white;fill-opacity:0.45;"/></g><g transform="matrix(1,0,0,0.735448,0,694.353)"><rect x="1770.7" y="551.996" width="1785.02" height="13.393" style="fill:white;fill-opacity:0.45;"/></g><rect x="1888.91" y="451.812" width="9.909" height="763.69" style="fill:white;fill-opacity:0.55;"/><g transform="matrix(1,0,0,1,116.532,0)"><rect x="1888.91" y="451.812" width="9.909" height="763.69" style="fill:white;fill-opacity:0.55;"/></g><g transform="matrix(1,0,0,1,233.065,0)"><rect x="1888.91" y="451.812" width="9.909" height="763.69" style="fill:white;fill-opacity:0.55;"/></g><g transform="matrix(1,0,0,1,349.597,0)"><rect x="1888.91" y="451.812" width="9.909" height="763.69" style="fill:white;fill-opacity:0.55;"/></g><g transform="matrix(1,0,0,1,466.129,0)"><rect x="1888.91" y="451.812" width="9.909" height="763.69" style="fill:white;fill-opacity:0.55;"/></g><g transform="matrix(1,0,0,1,582.661,0)"><rect x="1888.91" y="451.812" width="9.909" height="763.69" style="fill:white;fill-opacity:0.55;"/></g><g transform="matrix(1,0,0,1,699.194,0)"><rect x="1888.91" y="451.812" width="9.909" height="763.69" style="fill:white;fill-opacity:0.55;"/></g><g transform="matrix(1,0,0,1,815.726,0)"><rect x="1888.91" y="451.812" width="9.909" height="763.69" style="fill:white;fill-opacity:0.55;"/></g><g transform="matrix(1,0,0,1,932.258,0)"><rect x="1888.91" y="451.812" width="9.909" height="763.69" style="fill:white;fill-opacity:0.55;"/></g><g transform="matrix(1,0,0,1,1048.79,0)"><rect x="1888.91" y="451.812" width="9.909" height="763.69" style="fill:white;fill-opacity:0.55;"/></g><g transform="matrix(1,0,0,1,1165.32,0)"><rect x="1888.91" y="451.812" width="9.909" height="763.69" style="fill:white;fill-opacity:0.55;"/></g><g transform="matrix(1,0,0,1,1281.85,0)"><rect x="1888.91" y="451.812" width="9.909" height="763.69" style="fill:white;fill-opacity:0.55;"/></g><g transform="matrix(1,0,0,1,1398.39,0)"><rect x="1888.91" y="451.812" width="9.909" height="763.69" style="fill:white;fill-opacity:0.55;"/></g></g><g transform="matrix(1.08667,-0.807767,1.49743,0.392493,-2198.55,2108.12)"><g transform="matrix(0.23973,0.493373,-0.914608,0.663723,2456.55,-315.591)"><path d="M42.462,1921.77L956.216,2146.61L855.311,2007.38C855.311,2007.38 72.711,1845.54 57.554,1836.79C42.397,1828.04 42.462,1921.77 42.462,1921.77Z" style="fill-opacity:0.12;"/></g><g transform="matrix(0.921864,0,0,0.820951,59.1391,112.715)"><rect x="756.876" y="629.524" width="944.426" height="1352.11" style="fill:rgb(247,251,255);"/></g><g transform="matrix(0.23973,0.493373,-0.914608,0.663723,2456.55,-315.591)"><path d="M596.846,1091.56L28.02,1460.22L30.344,1764.7L1178.11,2143.31L596.846,1091.56Z" style="fill-opacity:0.29;"/></g><g transform="matrix(0.298813,0.493373,-0.835125,0.663723,2195.52,-371.867)"><path d="M2247.17,1484.2L1313.5,2178.24L-181.185,1643.43L-194.266,1653.15L1324.52,2196.58L2271.27,1492.82L2247.17,1484.2Z" style="fill:rgb(197,227,255);"/></g><g transform="matrix(0.26116,0,0,0.394417,633.443,447.409)"><rect x="830.029" y="978.12" width="770.71" height="391.055" style="fill:rgb(217,237,255);"/></g><g transform="matrix(0.26116,0,0,0.394417,878.819,447.409)"><rect x="830.029" y="978.12" width="770.71" height="391.055" style="fill:rgb(217,237,255);"/></g><g transform="matrix(0.26116,0,0,0.394417,1124.19,447.409)"><rect x="830.029" y="978.12" width="770.71" height="391.055" style="fill:rgb(217,237,255);"/></g><g transform="matrix(0.0656308,0,0,0.394417,795.738,447.409)"><rect x="830.029" y="978.12" width="770.71" height="391.055" style="fill:rgb(204,230,255);"/></g><g transform="matrix(0.0656308,0,0,0.394417,1041.11,447.409)"><rect x="830.029" y="978.12" width="770.71" height="391.055" style="fill:rgb(204,230,255);"/></g><g transform="matrix(0.0656308,0,0,0.394417,1286.49,447.409)"><rect x="830.029" y="978.12" width="770.71" height="391.055" style="fill:rgb(204,230,255);"/></g><g transform="matrix(0.591701,0,0,0.728353,689.687,263.52)"><rect x="431.647" y="622.425" width="336.176" height="33.702" style="fill:rgb(192,219,240);"/></g><g transform="matrix(1.00537,0,0,2.21629,771.46,-662.611)"><path d="M767.823,622.425L431.647,622.425L431.647,656.127L767.823,656.127L767.823,622.425ZM761.237,625.284L761.237,653.268C761.237,653.268 438.233,653.268 438.233,653.268C438.233,653.268 438.233,625.284 438.233,625.284C438.233,625.284 761.237,625.284 761.237,625.284L761.237,625.284Z" style="fill:rgb(192,219,240);"/></g><g transform="matrix(0.728353,0,0,0.728353,512.062,237.525)"><circle cx="777.004" cy="1325.36" r="225.714" style="fill:rgb(236,97,152);fill-opacity:0.71;"/></g><g transform="matrix(0.728353,0,0,0.728353,743.716,237.525)"><circle cx="777.004" cy="1325.36" r="225.714" style="fill:rgb(237,213,115);fill-opacity:0.71;"/></g><g transform="matrix(0.728353,0,0,0.728353,512.062,237.525)"><path d="M936.03,1165.24C977.21,1206.14 1002.72,1262.8 1002.72,1325.36C1002.72,1387.92 977.21,1444.57 936.03,1485.47C894.85,1444.57 869.342,1387.92 869.342,1325.36C869.342,1262.8 894.85,1206.14 936.03,1165.24Z" style="fill:rgb(68,174,158);fill-opacity:0.71;"/></g><g transform="matrix(0.728353,0,0,0.728353,481.355,250.92)"><rect x="499.829" y="1657.9" width="961.567" height="7.17" style="fill:rgb(191,224,255);fill-opacity:0.71;"/></g><g transform="matrix(0.728353,0,0,0.728353,481.355,296.629)"><rect x="499.829" y="1657.9" width="961.567" height="7.17" style="fill:rgb(191,224,255);fill-opacity:0.71;"/></g><g transform="matrix(0.728353,0,0,0.728353,481.355,342.339)"><rect x="499.829" y="1657.9" width="961.567" height="7.17" style="fill:rgb(191,224,255);fill-opacity:0.71;"/></g><g transform="matrix(0.728353,0,0,0.728353,481.355,388.048)"><rect x="499.829" y="1657.9" width="961.567" height="7.17" style="fill:rgb(191,224,255);fill-opacity:0.71;"/></g><g transform="matrix(0.728353,0,0,0.728353,481.355,250.92)"><rect x="614.113" y="1631.14" width="6.847" height="252.752" style="fill:rgb(191,224,255);fill-opacity:0.71;"/></g><g transform="matrix(0.728353,0,0,0.728353,533.015,250.92)"><rect x="614.113" y="1631.14" width="6.847" height="252.752" style="fill:rgb(191,224,255);fill-opacity:0.71;"/></g><g transform="matrix(0.728353,0,0,0.728353,821.635,250.92)"><rect x="614.113" y="1631.14" width="6.847" height="252.752" style="fill:rgb(191,224,255);fill-opacity:0.71;"/></g><g transform="matrix(0.591701,0,0,0.728353,689.687,317.385)"><rect x="431.647" y="622.425" width="336.176" height="33.702" style="fill:rgb(192,219,240);"/></g></g><g transform="matrix(1.08667,-0.807767,1.36729,0.489226,-1879.01,1955.32)"><g transform="matrix(0.921864,0,0,0.820951,59.1391,112.715)"><rect x="756.876" y="629.524" width="944.426" height="1352.11" style="fill:rgb(247,251,255);"/></g><g transform="matrix(0.298813,0.493373,-0.835125,0.663723,2195.52,-371.867)"><path d="M801.672,1990.46L1366.05,1632.94L1741.29,1811.03L1155.29,2126.87L801.672,1990.46Z" style="fill-opacity:0.16;"/></g><g transform="matrix(0.298813,0.493373,-0.835125,0.663723,2195.52,-371.867)"><path d="M2247.17,1484.2L1313.5,2178.24L-181.185,1643.43L-194.266,1653.15L1324.52,2196.58L2271.27,1492.82L2247.17,1484.2Z" style="fill:rgb(197,227,255);"/></g><g transform="matrix(0.26116,0,0,0.394417,633.443,447.409)"><rect x="830.029" y="978.12" width="770.71" height="391.055" style="fill:rgb(217,237,255);"/></g><g transform="matrix(0.26116,0,0,0.394417,878.819,447.409)"><rect x="830.029" y="978.12" width="770.71" height="391.055" style="fill:rgb(217,237,255);"/></g><g transform="matrix(0.26116,0,0,0.394417,1124.19,447.409)"><rect x="830.029" y="978.12" width="770.71" height="391.055" style="fill:rgb(217,237,255);"/></g><g transform="matrix(0.0656308,0,0,0.394417,795.738,447.409)"><rect x="830.029" y="978.12" width="770.71" height="391.055" style="fill:rgb(204,230,255);"/></g><g transform="matrix(0.0656308,0,0,0.394417,1041.11,447.409)"><rect x="830.029" y="978.12" width="770.71" height="391.055" style="fill:rgb(204,230,255);"/></g><g transform="matrix(0.0656308,0,0,0.394417,1286.49,447.409)"><rect x="830.029" y="978.12" width="770.71" height="391.055" style="fill:rgb(204,230,255);"/></g><g transform="matrix(0.193405,0,0,0.728353,761.141,263.52)"><rect x="431.647" y="622.425" width="336.176" height="33.702" style="fill:rgb(192,219,240);"/></g><g transform="matrix(0.193405,0,0,0.728353,761.141,317.385)"><rect x="431.647" y="622.425" width="336.176" height="33.702" style="fill:rgb(192,219,240);"/></g><g transform="matrix(0.591701,0,0,0.728353,689.687,263.52)"><rect x="431.647" y="622.425" width="336.176" height="33.702" style="fill:rgb(192,219,240);"/></g><g transform="matrix(1.00537,0,0,2.21629,771.46,-662.611)"><path d="M767.823,622.425L431.647,622.425L431.647,656.127L767.823,656.127L767.823,622.425ZM761.237,625.284L761.237,653.268C761.237,653.268 438.233,653.268 438.233,653.268C438.233,653.268 438.233,625.284 438.233,625.284C438.233,625.284 761.237,625.284 761.237,625.284L761.237,625.284Z" style="fill:rgb(192,219,240);"/></g><g transform="matrix(0.728353,0,0,0.728353,512.062,237.525)"><circle cx="777.004" cy="1325.36" r="225.714" style="fill:rgb(236,97,152);fill-opacity:0.71;"/></g><g transform="matrix(0.728353,0,0,0.728353,743.716,237.525)"><circle cx="777.004" cy="1325.36" r="225.714" style="fill:rgb(237,213,115);fill-opacity:0.71;"/></g><g transform="matrix(0.728353,0,0,0.728353,512.062,237.525)"><path d="M936.03,1165.24C977.21,1206.14 1002.72,1262.8 1002.72,1325.36C1002.72,1387.92 977.21,1444.57 936.03,1485.47C894.85,1444.57 869.342,1387.92 869.342,1325.36C869.342,1262.8 894.85,1206.14 936.03,1165.24Z" style="fill:rgb(68,174,158);fill-opacity:0.71;"/></g><g transform="matrix(0.728353,0,0,0.728353,481.355,250.92)"><rect x="499.829" y="1657.9" width="961.567" height="7.17" style="fill:rgb(191,224,255);fill-opacity:0.71;"/></g><g transform="matrix(0.728353,0,0,0.728353,481.355,296.629)"><rect x="499.829" y="1657.9" width="961.567" height="7.17" style="fill:rgb(191,224,255);fill-opacity:0.71;"/></g><g transform="matrix(0.728353,0,0,0.728353,481.355,342.339)"><rect x="499.829" y="1657.9" width="961.567" height="7.17" style="fill:rgb(191,224,255);fill-opacity:0.71;"/></g><g transform="matrix(0.728353,0,0,0.728353,481.355,388.048)"><rect x="499.829" y="1657.9" width="961.567" height="7.17" style="fill:rgb(191,224,255);fill-opacity:0.71;"/></g><g transform="matrix(0.728353,0,0,0.728353,481.355,250.92)"><rect x="614.113" y="1631.14" width="6.847" height="252.752" style="fill:rgb(191,224,255);fill-opacity:0.71;"/></g><g transform="matrix(0.728353,0,0,0.728353,533.015,250.92)"><rect x="614.113" y="1631.14" width="6.847" height="252.752" style="fill:rgb(191,224,255);fill-opacity:0.71;"/></g><g transform="matrix(0.728353,0,0,0.728353,821.635,250.92)"><rect x="614.113" y="1631.14" width="6.847" height="252.752" style="fill:rgb(191,224,255);fill-opacity:0.71;"/></g><g transform="matrix(0.591701,0,0,0.728353,689.687,317.385)"><rect x="431.647" y="622.425" width="336.176" height="33.702" style="fill:rgb(192,219,240);"/></g></g><g transform="matrix(0.999297,0,0,0.999297,-1.66312,-0.0722767)"><path d="M2544.83,2403.97L3067.02,2071.36L3687.5,2359.71L2544.83,2403.97Z" style="fill:rgb(247,251,255);"/></g><g transform="matrix(0.999297,0,0,0.999297,-1.66312,-0.0722767)"><path d="M2757.34,2555.82C2757.34,2555.82 3244.87,2098.7 3306.17,2029.45C3353.1,1976.44 3151.03,1799.9 3247.26,1720.41L3691.36,1947.9C3691.36,1947.9 3819.2,1942.67 3813.28,1836.16C3807.37,1729.65 3607.12,1579.06 3607.12,1579.06L3094.48,1458.6L2521.43,2181.52L2757.34,2555.82Z" style="fill-opacity:0.2;"/></g><g transform="matrix(-1.14874,-0.461697,-1.09539,0.750492,3920.64,1922.04)"><g transform="matrix(0.921864,0,0,0.820951,59.1391,112.715)"><rect x="756.876" y="629.524" width="944.426" height="1352.11" style="fill:rgb(247,251,255);"/></g><g transform="matrix(0.298813,0.493373,-0.835125,0.663723,2195.52,-371.867)"><path d="M2247.17,1484.2L1313.5,2178.24L-181.185,1643.43L-194.266,1653.15L1324.52,2196.58L2271.27,1492.82L2247.17,1484.2Z" style="fill:rgb(197,227,255);"/></g><g transform="matrix(0.26116,0,0,0.394417,633.443,447.409)"><rect x="830.029" y="978.12" width="770.71" height="391.055" style="fill:rgb(217,237,255);"/></g><g transform="matrix(0.26116,0,0,0.394417,878.819,447.409)"><rect x="830.029" y="978.12" width="770.71" height="391.055" style="fill:rgb(217,237,255);"/></g><g transform="matrix(0.26116,0,0,0.394417,1124.19,447.409)"><rect x="830.029" y="978.12" width="770.71" height="391.055" style="fill:rgb(217,237,255);"/></g><g transform="matrix(0.0656308,0,0,0.394417,795.738,447.409)"><rect x="830.029" y="978.12" width="770.71" height="391.055" style="fill:rgb(204,230,255);"/></g><g transform="matrix(0.0656308,0,0,0.394417,1041.11,447.409)"><rect x="830.029" y="978.12" width="770.71" height="391.055" style="fill:rgb(204,230,255);"/></g><g transform="matrix(0.0656308,0,0,0.394417,1286.49,447.409)"><rect x="830.029" y="978.12" width="770.71" height="391.055" style="fill:rgb(204,230,255);"/></g><g transform="matrix(0.193405,0,0,0.728353,761.141,263.52)"><rect x="431.647" y="622.425" width="336.176" height="33.702" style="fill:rgb(192,219,240);"/></g><g transform="matrix(0.193405,0,0,0.728353,761.141,317.385)"><rect x="431.647" y="622.425" width="336.176" height="33.702" style="fill:rgb(192,219,240);"/></g><g transform="matrix(0.591701,0,0,0.728353,689.687,263.52)"><rect x="431.647" y="622.425" width="336.176" height="33.702" style="fill:rgb(192,219,240);"/></g><g transform="matrix(1.00537,0,0,2.21629,771.46,-662.611)"><path d="M767.823,622.425L431.647,622.425L431.647,656.127L767.823,656.127L767.823,622.425ZM761.237,625.284L761.237,653.268C761.237,653.268 438.233,653.268 438.233,653.268C438.233,653.268 438.233,625.284 438.233,625.284C438.233,625.284 761.237,625.284 761.237,625.284L761.237,625.284Z" style="fill:rgb(192,219,240);"/></g><g transform="matrix(0.728353,0,0,0.728353,512.062,237.525)"><circle cx="777.004" cy="1325.36" r="225.714" style="fill:rgb(236,97,152);fill-opacity:0.71;"/></g><g transform="matrix(0.728353,0,0,0.728353,743.716,237.525)"><circle cx="777.004" cy="1325.36" r="225.714" style="fill:rgb(237,213,115);fill-opacity:0.71;"/></g><g transform="matrix(0.728353,0,0,0.728353,512.062,237.525)"><path d="M936.03,1165.24C977.21,1206.14 1002.72,1262.8 1002.72,1325.36C1002.72,1387.92 977.21,1444.57 936.03,1485.47C894.85,1444.57 869.342,1387.92 869.342,1325.36C869.342,1262.8 894.85,1206.14 936.03,1165.24Z" style="fill:rgb(68,174,158);fill-opacity:0.71;"/></g><g transform="matrix(0.728353,0,0,0.728353,481.355,250.92)"><rect x="499.829" y="1657.9" width="961.567" height="7.17" style="fill:rgb(191,224,255);fill-opacity:0.71;"/></g><g transform="matrix(0.728353,0,0,0.728353,481.355,296.629)"><rect x="499.829" y="1657.9" width="961.567" height="7.17" style="fill:rgb(191,224,255);fill-opacity:0.71;"/></g><g transform="matrix(0.728353,0,0,0.728353,481.355,342.339)"><rect x="499.829" y="1657.9" width="961.567" height="7.17" style="fill:rgb(191,224,255);fill-opacity:0.71;"/></g><g transform="matrix(0.728353,0,0,0.728353,481.355,388.048)"><rect x="499.829" y="1657.9" width="961.567" height="7.17" style="fill:rgb(191,224,255);fill-opacity:0.71;"/></g><g transform="matrix(0.728353,0,0,0.728353,821.635,250.92)"><rect x="614.113" y="1631.14" width="6.847" height="252.752" style="fill:rgb(191,224,255);fill-opacity:0.71;"/></g><g transform="matrix(0.591701,0,0,0.728353,689.687,317.385)"><rect x="431.647" y="622.425" width="336.176" height="33.702" style="fill:rgb(192,219,240);"/></g></g><g transform="matrix(0.901621,0,0,0.901621,1034.16,175.358)"><g transform="matrix(2.2689,0,0,2.2689,-534.898,-2857.1)"><path d="M1533.69,2087.64C1533.69,2087.64 1552.14,2094.2 1568.77,2089.51C1585.4,2084.82 1603.74,2060.12 1604.3,1999.15C1604.85,1938.18 1623.41,1804.41 1667.47,1795.95L1451.44,1732.4L1420.56,1867.44L1454.58,2025.83L1515.7,2077.48L1533.69,2087.64Z" style="fill:rgb(230,243,255);"/></g><g transform="matrix(2.2689,0,0,2.2689,-534.898,-2857.1)"><path d="M1533.69,2087.64C1533.69,2087.64 1552.14,2094.2 1568.77,2089.51C1585.4,2084.82 1603.74,2060.12 1604.3,1999.15C1604.85,1938.18 1623.41,1804.41 1667.47,1795.95L1451.44,1732.4L1420.56,1867.44L1454.58,2025.83L1515.7,2077.48L1533.69,2087.64Z" style="fill:url(#_Linear2);"/></g><g transform="matrix(2.13566,0,0,2.13566,-386.468,-2407.19)"><g transform="matrix(1,0,0,1,26.9595,-79.6481)"><path d="M1425.22,1697.76C1425.22,1697.76 1464.87,1697.66 1473.08,1747.87C1481.3,1798.08 1477.61,1979.89 1484.36,2012.29C1491.12,2044.68 1499.92,2064.65 1533.69,2087.64L1295.73,1966.61L1253.88,1727L1425.22,1697.76Z" style="fill:rgb(118,181,230);"/></g><g transform="matrix(0.831345,0,0,0.831345,-58.333,1249.15)"><g><g><path d="M1688.12,875.483L199.087,1267.67C199.087,1267.67 168.28,1287.44 138.32,1306.67C135.805,1308.28 133.571,1310.21 131.652,1312.39C131.652,1312.39 674.575,1497.64 860.252,1561C898.522,1574.06 940.805,1566.77 972.498,1541.66C1141.36,1407.86 1640.71,995.872 1640.71,995.872L1689.75,884.483L1688.12,875.483Z" style="fill:url(#_Linear3);"/><path d="M1759.05,618.128C1759.05,618.128 1776.83,686.834 1779.3,704.297C1780.93,715.885 1769.93,771.578 1765.11,782.244C1758.13,797.702 1736.62,792.356 1721.06,818.059C1692.99,864.431 1666.58,946.968 1654.1,974.596C1649.36,985.09 1642.13,994.273 1633.05,1001.36C1550.57,1065.69 1121.83,1400.08 971.023,1517.7C938.257,1543.26 894.784,1550.5 855.504,1536.94C702.362,1484.09 313.212,1356.2 185.336,1312.06C159.926,1303.29 138.105,1273.61 134.699,1246.94C132.326,1228.37 131.458,1210.83 131.458,1210.83L1759.05,618.128Z" style="fill:rgb(55,140,127);"/><g transform="matrix(0.530155,0,0,0.530155,196.388,-38.4316)"><path d="M2982.5,1442.34C2976.68,1481.67 2965.16,1534.35 2958.99,1547.99C2945.82,1577.15 2905.25,1567.06 2875.9,1615.55C2822.96,1703.01 2773.14,1858.7 2749.59,1910.81C2740.65,1930.61 2727.02,1947.93 2709.9,1961.29L2060.38,2467.87C1981.38,2474.19 1912.18,2470.12 1891.38,2442.34C1888.91,2439.05 1921.71,2422.07 1925.15,2420.08C1972.25,2392.91 2015.5,2356.76 2060.34,2326C2170.64,2250.33 2275.28,2164.84 2387.93,2092.71C2471.46,2039.23 2566.36,2005.76 2649.72,1954.97C2864.45,1824.14 2661.73,1525.27 2982.5,1442.34Z" style="fill:url(#_Linear4);"/></g><g transform="matrix(0.995652,0,0,0.995652,471.529,-649.969)"><path d="M431.326,1088.74C431.326,1088.74 477.195,1061.39 500.723,1047.36C509.41,1042.18 519.806,1040.68 529.603,1043.2C620.685,1066.6 1127.49,1213.32 1275.51,1256.23C1284.19,1258.74 1290.91,1265.62 1293.23,1274.35C1295.54,1283.08 1293.11,1292.39 1286.82,1298.87C1263.42,1322.94 1233.7,1352.02 1228.4,1350.13C1219.43,1346.95 431.326,1088.74 431.326,1088.74Z" style="fill:rgb(152,212,203);"/></g><g transform="matrix(1.20287,0,0,1.20287,70.1671,-1502.57)"><path d="M1345.34,1735.84C1358.91,1739.78 1371.09,1743.3 1381.54,1746.33L1354.27,1764.76L1339.83,1751.17L1345.34,1735.84Z" style="fill-opacity:0.34;"/></g><g transform="matrix(1.04368,0.341631,-0.811344,0.635318,873.386,-87.2912)"><g transform="matrix(0.675691,-0.363341,0.862903,1.11,-504.237,423.395)"><path d="M795.726,673.702C793.373,677.24 790.468,680.379 787.123,682.998C733.591,724.916 269.989,1087.94 140.085,1189.66C133.442,1194.86 130.205,1203.3 131.666,1211.61C133.126,1219.92 139.046,1226.75 147.065,1229.37C287.139,1275.22 747.644,1425.96 872.265,1466.75C891.847,1473.16 913.336,1469.38 929.558,1456.68C1054.69,1358.7 1589.65,939.801 1589.65,939.801L1589.8,939.848C1589.8,939.848 1670.13,742.925 1698.68,672.851C1700.16,669.222 1698.04,656.742 1692.47,647.665C1687.07,638.868 1678.29,633.431 1674.68,632.253C1547.83,590.886 1121.13,477.497 992.704,435.615C973.933,429.493 953.384,436.632 942.451,453.072C903.397,511.796 814.565,645.373 795.726,673.702Z" style="fill:rgb(126,204,193);"/></g><g transform="matrix(0.675691,-0.363341,0.862903,1.11,-514.816,414.231)"><path d="M795.726,673.702C793.373,677.24 790.468,680.379 787.123,682.998C733.591,724.916 269.989,1087.94 140.085,1189.66C133.442,1194.86 130.205,1203.3 131.666,1211.61C133.126,1219.92 139.046,1226.75 147.065,1229.37C287.139,1275.22 747.644,1425.96 872.265,1466.75C891.847,1473.16 913.336,1469.38 929.558,1456.68C1054.69,1358.7 1589.65,939.801 1589.65,939.801L1589.8,939.848C1589.8,939.848 1654.98,781.065 1687.77,703.507C1690.78,696.399 1701.91,674.288 1696.9,660.418C1689.45,639.756 1663.11,636.306 1655.78,633.913C1528.93,592.546 1075.72,471.522 947.3,429.64C928.53,423.518 906.48,423.742 895.547,440.182C856.494,498.907 814.565,645.373 795.726,673.702Z" style="fill:rgb(68,174,158);"/></g><g transform="matrix(0.358221,-0.192627,0.457473,0.588475,-415.281,300.216)"><path d="M1341.07,883.202C1332.34,887.504 1324.7,893.883 1318.78,902.78C1245.12,1013.55 1166.03,1289.82 1130.5,1343.25C1126.06,1349.93 1120.58,1355.85 1114.27,1360.79L-51.221,2273.42L-78.142,2396.25L-60.624,2401.99C14.786,2344.5 77.455,2262.49 147.976,2200.48C384.181,1992.79 840.315,1568.57 1161.87,1523.7C1270.7,1508.51 1380.67,1551.03 1485.07,1578.5C1626.54,1615.74 1767.39,1641.19 1906.35,1689.82C1958.66,1708.13 2154.81,1765.4 2161.55,1756.28C2164.38,1752.44 2142.88,1717.25 2141.14,1716.14C2078.56,1676.07 2023.66,1665.62 1951.8,1644.37C1866.08,1619.03 1781.71,1588.37 1696.31,1561.74C1605.88,1533.56 1214.71,1464.23 1162.79,1406.02C1091.21,1325.75 1406.11,937.985 1348.29,888.746C1345.96,886.76 1343.55,884.913 1341.07,883.202Z" style="fill:url(#_Linear5);"/></g><g transform="matrix(0.484491,0.00332467,0.320737,0.61919,-411.158,-113.629)"><ellipse cx="2107.51" cy="1648.74" rx="229.691" ry="39.008" style="fill:url(#_Linear6);"/></g><g transform="matrix(0.658681,-0.354194,0.830313,1.06808,-463.336,469.223)"><path d="M957.979,1363.72C962.667,1360.04 961.64,1355.48 955.685,1353.53L874.861,1327.08C868.907,1325.13 860.266,1326.53 855.578,1330.2L838.589,1343.5C833.9,1347.17 834.928,1351.73 840.883,1353.68L921.707,1380.14C927.661,1382.09 936.301,1380.69 940.99,1377.02L957.979,1363.72ZM821.97,1319.19C826.658,1315.52 825.63,1310.96 819.676,1309.01L738.852,1282.56C732.898,1280.61 724.257,1282.01 719.569,1285.68L702.579,1298.98C697.891,1302.65 698.919,1307.21 704.873,1309.16L785.697,1335.62C791.652,1337.57 800.292,1336.17 804.98,1332.5L821.97,1319.19ZM1074.19,1278.14C1082.65,1271.51 1080.8,1263.28 1070.06,1259.76L924.226,1212.03C913.482,1208.51 897.892,1211.03 889.433,1217.66L858.779,1241.66C850.32,1248.29 852.174,1256.52 862.918,1260.03L1008.75,1307.77C1019.49,1311.29 1035.08,1308.76 1043.54,1302.14L1074.19,1278.14ZM828.793,1197.81C837.252,1191.18 835.398,1182.95 824.654,1179.43L678.823,1131.7C668.08,1128.18 652.49,1130.7 644.031,1137.33L613.377,1161.33C604.917,1167.96 606.772,1176.19 617.516,1179.71L763.346,1227.44C774.09,1230.96 789.68,1228.43 798.139,1221.81L828.793,1197.81ZM1183.85,1192.27C1192.31,1185.65 1190.46,1177.41 1179.71,1173.9L1033.88,1126.16C1023.14,1122.64 1007.55,1125.17 999.09,1131.79L968.436,1155.79C959.977,1162.42 961.831,1170.65 972.575,1174.17L1118.41,1221.9C1129.15,1225.42 1144.74,1222.9 1153.2,1216.27L1183.85,1192.27ZM583.391,1117.48C591.85,1110.86 589.995,1102.62 579.252,1099.11L433.421,1051.37C422.678,1047.85 407.087,1050.38 398.628,1057L367.974,1081C359.515,1087.63 361.37,1095.86 372.113,1099.38L517.944,1147.11C528.688,1150.63 544.278,1148.11 552.737,1141.48L583.391,1117.48ZM938.45,1111.94C946.909,1105.32 945.055,1097.09 934.311,1093.57L788.481,1045.83C777.737,1042.32 762.147,1044.84 753.688,1051.46L723.034,1075.47C714.575,1082.09 716.429,1090.32 727.173,1093.84L873.003,1141.58C883.747,1145.09 899.337,1142.57 907.796,1135.94L938.45,1111.94ZM1293.51,1106.4C1301.97,1099.78 1300.11,1091.55 1289.37,1088.03L1143.54,1040.3C1132.8,1036.78 1117.21,1039.3 1108.75,1045.92L1078.09,1069.93C1069.63,1076.55 1071.49,1084.79 1082.23,1088.3L1228.06,1136.04C1238.81,1139.55 1254.4,1137.03 1262.86,1130.41L1293.51,1106.4ZM693.048,1031.61C701.507,1024.99 699.652,1016.76 688.909,1013.24L543.078,965.505C532.335,961.988 516.744,964.51 508.285,971.134L477.631,995.138C469.172,1001.76 471.027,1009.99 481.77,1013.51L627.601,1061.25C638.345,1064.76 653.935,1062.24 662.394,1055.62L693.048,1031.61ZM1048.11,1026.08C1056.57,1019.45 1054.71,1011.22 1043.97,1007.7L898.138,959.967C887.394,956.45 871.804,958.972 863.345,965.596L832.691,989.6C824.232,996.224 826.086,1004.46 836.83,1007.97L982.66,1055.71C993.404,1059.22 1008.99,1056.7 1017.45,1050.08L1048.11,1026.08ZM1388.35,1029.09C1392.43,1025.9 1391.87,1022.03 1387.1,1020.47L1279.35,985.202C1274.58,983.639 1267.39,984.965 1263.31,988.161L1248.52,999.742C1244.43,1002.94 1245,1006.8 1249.77,1008.36L1357.52,1043.63C1362.29,1045.2 1369.48,1043.87 1373.56,1040.67L1388.35,1029.09ZM1207.38,969.856C1211.46,966.66 1210.9,962.797 1206.13,961.235L1098.38,925.965C1093.61,924.403 1086.42,925.729 1082.34,928.925L1067.55,940.506C1063.47,943.702 1064.03,947.565 1068.8,949.128L1176.55,984.397C1181.32,985.959 1188.51,984.633 1192.59,981.437L1207.38,969.856ZM802.705,945.747C811.164,939.123 809.309,930.89 798.566,927.373L652.735,879.638C641.992,876.122 626.401,878.644 617.942,885.268L587.288,909.271C578.829,915.895 580.684,924.128 591.428,927.645L737.258,975.38C748.002,978.897 763.592,976.374 772.051,969.75L802.705,945.747ZM1026.42,910.62C1030.5,907.424 1029.94,903.561 1025.16,901.998L917.416,866.729C912.642,865.166 905.453,866.492 901.372,869.688L886.582,881.269C882.501,884.465 883.063,888.328 887.836,889.891L995.583,925.16C1000.36,926.723 1007.55,925.397 1011.63,922.201L1026.42,910.62ZM845.45,851.383C849.531,848.187 848.969,844.324 844.195,842.761L736.449,807.492C731.675,805.93 724.486,807.256 720.405,810.452L705.615,822.033C701.533,825.229 702.096,829.092 706.869,830.654L814.616,865.923C819.39,867.486 826.579,866.16 830.66,862.964L845.45,851.383Z" style="fill-opacity:0.16;"/></g><g transform="matrix(0.650172,-0.349619,0.830313,1.06808,-468.301,448.823)"><path d="M957.979,1363.72C962.667,1360.04 964.827,1340.02 958.873,1338.08L874.861,1327.08C868.907,1325.13 860.266,1326.53 855.578,1330.2L838.159,1329.21C833.471,1332.88 834.928,1351.73 840.883,1353.68L921.707,1380.14C927.661,1382.09 936.301,1380.69 940.99,1377.02L957.979,1363.72ZM821.97,1319.19C826.658,1315.52 828.805,1296.07 822.851,1294.12L738.852,1282.56C732.898,1280.61 724.257,1282.01 719.569,1285.68L701.772,1284.63C697.084,1288.3 698.919,1307.21 704.873,1309.16L785.697,1335.62C791.652,1337.57 800.292,1336.17 804.98,1332.5L821.97,1319.19ZM1074.19,1278.14C1082.65,1271.51 1084.52,1249.22 1073.78,1245.7L924.226,1212.03C913.482,1208.51 897.892,1211.03 889.433,1217.66L857.93,1228.94C849.471,1235.57 852.174,1256.52 862.918,1260.03L1008.75,1307.77C1019.49,1311.29 1035.08,1308.76 1043.54,1302.14L1074.19,1278.14ZM828.793,1197.81C837.252,1191.18 835.398,1182.95 824.654,1179.43L678.823,1131.7C668.08,1128.18 652.49,1130.7 644.031,1137.33L610.919,1150.08C602.46,1156.7 606.772,1176.19 617.516,1179.71L763.346,1227.44C774.09,1230.96 789.68,1228.43 798.139,1221.81L828.793,1197.81ZM1183.85,1192.27C1192.31,1185.65 1194.31,1163.39 1183.56,1159.88L1033.88,1126.16C1023.14,1122.64 1007.55,1125.17 999.09,1131.79L968.094,1141.08C959.634,1147.7 961.831,1170.65 972.575,1174.17L1118.41,1221.9C1129.15,1225.42 1144.74,1222.9 1153.2,1216.27L1183.85,1192.27ZM583.391,1117.48C591.85,1110.86 593.665,1089.13 582.921,1085.62L433.421,1051.37C422.678,1047.85 407.087,1050.38 398.628,1057L366.216,1067.93C357.757,1074.56 361.37,1095.86 372.113,1099.38L517.944,1147.11C528.688,1150.63 544.278,1148.11 552.737,1141.48L583.391,1117.48ZM938.45,1111.94C946.909,1105.32 945.055,1097.09 934.311,1093.57L788.481,1045.83C777.737,1042.32 762.147,1044.84 753.688,1051.46L722.731,1061.86C714.272,1068.49 716.429,1090.32 727.173,1093.84L873.003,1141.58C883.747,1145.09 899.337,1142.57 907.796,1135.94L938.45,1111.94ZM1293.51,1106.4C1301.97,1099.78 1303.28,1074.89 1292.54,1071.37L1143.54,1040.3C1132.8,1036.78 1117.21,1039.3 1108.75,1045.92L1076.59,1056.94C1068.13,1063.56 1071.49,1084.79 1082.23,1088.3L1228.06,1136.04C1238.81,1139.55 1254.4,1137.03 1262.86,1130.41L1293.51,1106.4ZM693.048,1031.61C701.507,1024.99 703.321,1002.7 692.578,999.179L543.078,965.505C532.335,961.988 516.744,964.51 508.285,971.134L475.324,982.172C466.865,988.796 471.027,1009.99 481.77,1013.51L627.601,1061.25C638.345,1064.76 653.935,1062.24 662.394,1055.62L693.048,1031.61ZM1048.11,1026.08C1056.57,1019.45 1058.98,997.556 1048.23,994.039L898.138,959.967C887.394,956.45 871.804,958.972 863.345,965.596L832.195,975.785C823.736,982.409 826.086,1004.46 836.83,1007.97L982.66,1055.71C993.404,1059.22 1008.99,1056.7 1017.45,1050.08L1048.11,1026.08ZM1388.35,1029.09C1392.43,1025.9 1394.37,1006.69 1389.6,1005.13L1279.35,985.202C1274.58,983.639 1267.39,984.965 1263.31,988.161L1248.26,984.763C1244.18,987.959 1245,1006.8 1249.77,1008.36L1357.52,1043.63C1362.29,1045.2 1369.48,1043.87 1373.56,1040.67L1388.35,1029.09ZM1207.38,969.856C1211.46,966.66 1213.52,947.92 1208.75,946.358L1098.38,925.965C1093.61,924.403 1086.42,925.729 1082.34,928.925L1066.99,926.368C1062.91,929.564 1064.03,947.565 1068.8,949.128L1176.55,984.397C1181.32,985.959 1188.51,984.633 1192.59,981.437L1207.38,969.856ZM802.705,945.747C811.164,939.123 813.191,916.003 802.447,912.486L652.735,879.638C641.992,876.122 626.401,878.644 617.942,885.268L585.431,896.044C576.972,902.668 580.684,924.128 591.428,927.645L737.258,975.38C748.002,978.897 763.592,976.374 772.051,969.75L802.705,945.747ZM1026.42,910.62C1030.5,907.424 1032.44,888.339 1027.66,886.776L917.416,866.729C912.642,865.166 905.453,866.492 901.372,869.688L885.663,867.076C881.582,870.272 883.063,888.328 887.836,889.891L995.583,925.16C1000.36,926.723 1007.55,925.397 1011.63,922.201L1026.42,910.62ZM845.45,851.383C849.531,848.187 851.617,828.802 846.843,827.239L736.449,807.492C731.675,805.93 724.486,807.256 720.405,810.452L705.007,807.308C700.926,810.504 702.096,829.092 706.869,830.654L814.616,865.923C819.39,867.486 826.579,866.16 830.66,862.964L845.45,851.383Z" style="fill:rgb(51,123,112);"/></g><g transform="matrix(0.650172,-0.349619,0.830313,1.06808,-481.842,430.517)"><path d="M957.979,1363.72C962.667,1360.04 961.64,1355.48 955.685,1353.53L874.861,1327.08C868.907,1325.13 860.266,1326.53 855.578,1330.2L838.589,1343.5C833.9,1347.17 834.928,1351.73 840.883,1353.68L921.707,1380.14C927.661,1382.09 936.301,1380.69 940.99,1377.02L957.979,1363.72ZM821.97,1319.19C826.658,1315.52 825.63,1310.96 819.676,1309.01L738.852,1282.56C732.898,1280.61 724.257,1282.01 719.569,1285.68L702.579,1298.98C697.891,1302.65 698.919,1307.21 704.873,1309.16L785.697,1335.62C791.652,1337.57 800.292,1336.17 804.98,1332.5L821.97,1319.19ZM1074.19,1278.14C1082.65,1271.51 1080.8,1263.28 1070.06,1259.76L924.226,1212.03C913.482,1208.51 897.892,1211.03 889.433,1217.66L858.779,1241.66C850.32,1248.29 852.174,1256.52 862.918,1260.03L1008.75,1307.77C1019.49,1311.29 1035.08,1308.76 1043.54,1302.14L1074.19,1278.14ZM828.793,1197.81C837.252,1191.18 835.398,1182.95 824.654,1179.43L678.823,1131.7C668.08,1128.18 652.49,1130.7 644.031,1137.33L613.377,1161.33C604.917,1167.96 606.772,1176.19 617.516,1179.71L763.346,1227.44C774.09,1230.96 789.68,1228.43 798.139,1221.81L828.793,1197.81ZM1183.85,1192.27C1192.31,1185.65 1190.46,1177.41 1179.71,1173.9L1033.88,1126.16C1023.14,1122.64 1007.55,1125.17 999.09,1131.79L968.436,1155.79C959.977,1162.42 961.831,1170.65 972.575,1174.17L1118.41,1221.9C1129.15,1225.42 1144.74,1222.9 1153.2,1216.27L1183.85,1192.27ZM583.391,1117.48C591.85,1110.86 589.995,1102.62 579.252,1099.11L433.421,1051.37C422.678,1047.85 407.087,1050.38 398.628,1057L367.974,1081C359.515,1087.63 361.37,1095.86 372.113,1099.38L517.944,1147.11C528.688,1150.63 544.278,1148.11 552.737,1141.48L583.391,1117.48ZM938.45,1111.94C946.909,1105.32 945.055,1097.09 934.311,1093.57L788.481,1045.83C777.737,1042.32 762.147,1044.84 753.688,1051.46L723.034,1075.47C714.575,1082.09 716.429,1090.32 727.173,1093.84L873.003,1141.58C883.747,1145.09 899.337,1142.57 907.796,1135.94L938.45,1111.94ZM1293.51,1106.4C1301.97,1099.78 1300.11,1091.55 1289.37,1088.03L1143.54,1040.3C1132.8,1036.78 1117.21,1039.3 1108.75,1045.92L1078.09,1069.93C1069.63,1076.55 1071.49,1084.79 1082.23,1088.3L1228.06,1136.04C1238.81,1139.55 1254.4,1137.03 1262.86,1130.41L1293.51,1106.4ZM693.048,1031.61C701.507,1024.99 699.652,1016.76 688.909,1013.24L543.078,965.505C532.335,961.988 516.744,964.51 508.285,971.134L477.631,995.138C469.172,1001.76 471.027,1009.99 481.77,1013.51L627.601,1061.25C638.345,1064.76 653.935,1062.24 662.394,1055.62L693.048,1031.61ZM1048.11,1026.08C1056.57,1019.45 1054.71,1011.22 1043.97,1007.7L898.138,959.967C887.394,956.45 871.804,958.972 863.345,965.596L832.691,989.6C824.232,996.224 826.086,1004.46 836.83,1007.97L982.66,1055.71C993.404,1059.22 1008.99,1056.7 1017.45,1050.08L1048.11,1026.08ZM1388.35,1029.09C1392.43,1025.9 1391.87,1022.03 1387.1,1020.47L1279.35,985.202C1274.58,983.639 1267.39,984.965 1263.31,988.161L1248.52,999.742C1244.43,1002.94 1245,1006.8 1249.77,1008.36L1357.52,1043.63C1362.29,1045.2 1369.48,1043.87 1373.56,1040.67L1388.35,1029.09ZM1207.38,969.856C1211.46,966.66 1210.9,962.797 1206.13,961.235L1098.38,925.965C1093.61,924.403 1086.42,925.729 1082.34,928.925L1067.55,940.506C1063.47,943.702 1064.03,947.565 1068.8,949.128L1176.55,984.397C1181.32,985.959 1188.51,984.633 1192.59,981.437L1207.38,969.856ZM802.705,945.747C811.164,939.123 809.309,930.89 798.566,927.373L652.735,879.638C641.992,876.122 626.401,878.644 617.942,885.268L587.288,909.271C578.829,915.895 580.684,924.128 591.428,927.645L737.258,975.38C748.002,978.897 763.592,976.374 772.051,969.75L802.705,945.747ZM1026.42,910.62C1030.5,907.424 1029.94,903.561 1025.16,901.998L917.416,866.729C912.642,865.166 905.453,866.492 901.372,869.688L886.582,881.269C882.501,884.465 883.063,888.328 887.836,889.891L995.583,925.16C1000.36,926.723 1007.55,925.397 1011.63,922.201L1026.42,910.62ZM845.45,851.383C849.531,848.187 848.969,844.324 844.195,842.761L736.449,807.492C731.675,805.93 724.486,807.256 720.405,810.452L705.615,822.033C701.533,825.229 702.096,829.092 706.869,830.654L814.616,865.923C819.39,867.486 826.579,866.16 830.66,862.964L845.45,851.383Z" style="fill:rgb(152,212,203);"/></g></g><g transform="matrix(0.998266,-0.0588708,0.172242,1.20646,-148.663,-67.5771)"><g transform="matrix(1.0013,0.326549,-0.417131,0.627239,366.339,16.9798)"><path d="M1475.96,402.509C1475.96,379.866 1465.14,361.483 1451.82,361.483L764.253,361.483C750.929,361.483 740.111,379.866 740.111,402.509L740.111,595.524C740.111,618.167 750.929,636.551 764.253,636.551L1451.82,636.551C1465.14,636.551 1475.96,618.167 1475.96,595.524L1475.96,402.509Z" style="fill:rgb(152,212,203);"/></g><g transform="matrix(1.0013,0.326549,-0.417131,0.627239,366.339,16.9798)"><path d="M1475.96,402.509C1475.96,379.866 1465.14,361.483 1451.82,361.483L764.253,361.483C750.929,361.483 740.111,379.866 740.111,402.509L740.111,595.524C740.111,618.167 750.929,636.551 764.253,636.551L1451.82,636.551C1465.14,636.551 1475.96,618.167 1475.96,595.524L1475.96,402.509Z" style="fill:rgb(192,229,223);"/></g><g transform="matrix(54.733,17.809,-30.8143,45.0855,-50733.2,-86244.9)"><path d="M1660.31,1270.37L1660.31,1270.18C1660.39,1270.18 1660.45,1270.17 1660.49,1270.16C1660.54,1270.15 1660.59,1270.13 1660.62,1270.09C1660.65,1270.07 1660.66,1270.03 1660.68,1269.99C1660.68,1269.97 1660.69,1269.95 1660.69,1269.93L1660.92,1269.93L1660.92,1271.34L1660.63,1271.34L1660.63,1270.37L1660.31,1270.37Z" style="fill:rgb(45,108,98);fill-rule:nonzero;"/><path d="M1661.4,1271.06C1661.43,1270.97 1661.53,1270.87 1661.67,1270.77C1661.8,1270.67 1661.88,1270.61 1661.92,1270.57C1661.98,1270.51 1662.01,1270.44 1662.01,1270.37C1662.01,1270.31 1661.99,1270.26 1661.96,1270.22C1661.92,1270.18 1661.88,1270.16 1661.82,1270.16C1661.73,1270.16 1661.67,1270.19 1661.64,1270.26C1661.63,1270.29 1661.62,1270.35 1661.61,1270.43L1661.35,1270.43C1661.35,1270.31 1661.37,1270.21 1661.41,1270.14C1661.49,1270 1661.62,1269.93 1661.8,1269.93C1661.95,1269.93 1662.07,1269.97 1662.16,1270.05C1662.24,1270.13 1662.29,1270.24 1662.29,1270.38C1662.29,1270.48 1662.26,1270.57 1662.19,1270.65C1662.15,1270.71 1662.09,1270.77 1662,1270.83L1661.88,1270.91C1661.82,1270.96 1661.77,1271 1661.74,1271.02C1661.72,1271.04 1661.7,1271.07 1661.68,1271.09L1662.29,1271.09L1662.29,1271.34L1661.33,1271.34C1661.33,1271.24 1661.36,1271.14 1661.4,1271.06Z" style="fill:rgb(45,108,98);fill-rule:nonzero;"/><g transform="matrix(1,0,0,1,1.21719,-0.0334909)"><path d="M1663.06,1270.37L1663.06,1270.18C1663.14,1270.18 1663.2,1270.17 1663.24,1270.16C1663.3,1270.15 1663.34,1270.13 1663.38,1270.09C1663.4,1270.07 1663.42,1270.03 1663.43,1269.99C1663.44,1269.97 1663.44,1269.95 1663.44,1269.93L1663.67,1269.93L1663.67,1271.34L1663.39,1271.34L1663.39,1270.37L1663.06,1270.37Z" style="fill:rgb(45,108,98);fill-rule:nonzero;"/></g><g transform="matrix(1,0,0,1,1.21719,-0.0334909)"><path d="M1664.35,1270.96C1664.36,1271.02 1664.38,1271.07 1664.41,1271.1C1664.44,1271.13 1664.49,1271.15 1664.55,1271.15C1664.61,1271.15 1664.67,1271.12 1664.7,1271.08C1664.74,1271.03 1664.76,1270.97 1664.76,1270.9C1664.76,1270.83 1664.74,1270.76 1664.7,1270.71C1664.67,1270.66 1664.62,1270.64 1664.55,1270.64C1664.52,1270.64 1664.49,1270.64 1664.46,1270.65C1664.42,1270.67 1664.39,1270.7 1664.36,1270.74L1664.12,1270.73L1664.22,1269.95L1664.99,1269.95L1664.99,1270.19L1664.41,1270.19L1664.36,1270.49C1664.41,1270.47 1664.44,1270.45 1664.46,1270.44C1664.5,1270.42 1664.55,1270.42 1664.61,1270.42C1664.73,1270.42 1664.83,1270.46 1664.91,1270.53C1665,1270.61 1665.04,1270.73 1665.04,1270.87C1665.04,1271 1665,1271.12 1664.92,1271.22C1664.84,1271.32 1664.71,1271.37 1664.55,1271.37C1664.41,1271.37 1664.3,1271.34 1664.22,1271.27C1664.13,1271.19 1664.08,1271.09 1664.07,1270.96L1664.35,1270.96Z" style="fill:rgb(45,108,98);fill-rule:nonzero;"/></g><g transform="matrix(1,0,0,1,2.41774,-0.0305667)"><path d="M1666.72,1270.17C1666.67,1270.21 1666.62,1270.28 1666.54,1270.39C1666.47,1270.49 1666.41,1270.6 1666.36,1270.71C1666.32,1270.8 1666.29,1270.9 1666.25,1271.03C1666.22,1271.15 1666.21,1271.26 1666.21,1271.34L1665.92,1271.34C1665.93,1271.09 1666.01,1270.82 1666.17,1270.55C1666.27,1270.38 1666.35,1270.27 1666.42,1270.2L1665.72,1270.2L1665.73,1269.95L1666.72,1269.95L1666.72,1270.17Z" style="fill:rgb(45,108,98);fill-rule:nonzero;"/></g><g transform="matrix(1,0,0,1,2.41774,-0.0305667)"><path d="M1667.1,1270.96C1667.11,1271.02 1667.13,1271.07 1667.16,1271.1C1667.19,1271.13 1667.24,1271.15 1667.3,1271.15C1667.37,1271.15 1667.42,1271.12 1667.45,1271.08C1667.49,1271.03 1667.51,1270.97 1667.51,1270.9C1667.51,1270.83 1667.49,1270.76 1667.46,1270.71C1667.42,1270.66 1667.37,1270.64 1667.3,1270.64C1667.27,1270.64 1667.24,1270.64 1667.21,1270.65C1667.17,1270.67 1667.14,1270.7 1667.12,1270.74L1666.87,1270.73L1666.97,1269.95L1667.74,1269.95L1667.74,1270.19L1667.17,1270.19L1667.12,1270.49C1667.16,1270.47 1667.19,1270.45 1667.22,1270.44C1667.26,1270.42 1667.3,1270.42 1667.36,1270.42C1667.48,1270.42 1667.58,1270.46 1667.66,1270.53C1667.75,1270.61 1667.8,1270.73 1667.8,1270.87C1667.8,1271 1667.75,1271.12 1667.67,1271.22C1667.59,1271.32 1667.46,1271.37 1667.3,1271.37C1667.16,1271.37 1667.05,1271.34 1666.97,1271.27C1666.88,1271.19 1666.84,1271.09 1666.83,1270.96L1667.1,1270.96Z" style="fill:rgb(45,108,98);fill-rule:nonzero;"/></g></g><path d="M856.158,658.254C856.387,653.435 858.154,648.18 861.574,643.039L942.086,521.973C951.531,507.77 970.031,499.772 983.372,504.122L1671.83,728.646C1676.3,730.106 1679.63,732.773 1681.73,736.207C1682.13,727.717 1677.76,720.581 1669.25,717.805L980.797,493.282C967.456,488.931 948.957,496.929 939.511,511.132L858.999,632.198C852.724,641.634 852.014,651.451 856.158,658.254Z" style="fill:rgb(122,200,188);"/><path d="M1526.92,671.388L1173.48,766.074L1370.45,830.31L1681.05,729.783C1679.52,724.233 1675.5,719.843 1669.25,717.805L1526.92,671.388ZM1321.39,604.359L921.46,683.883L866.418,665.932L1268.73,587.185L1321.39,604.359ZM893.672,580.06L858.999,632.198C856.619,635.777 855.039,639.411 854.222,642.915L1215.88,569.949L1113.34,536.509L893.672,580.06Z" style="fill:url(#_Linear7);"/></g></g><g transform="matrix(1.82224,0.564521,-0.564521,1.82224,-1296.75,-1214.02)"><ellipse cx="1628.84" cy="674.425" rx="20.968" ry="7.138" style="fill:rgb(51,123,112);"/></g><g transform="matrix(1.82224,0.564521,-0.564521,1.82224,-1548.72,-1303.1)"><ellipse cx="1628.84" cy="674.425" rx="20.968" ry="7.138" style="fill:rgb(51,123,112);"/></g><g transform="matrix(1.82224,0.564521,-0.564521,1.82224,-1415.91,-1256.51)"><ellipse cx="1628.84" cy="674.425" rx="20.968" ry="7.138" style="fill:rgb(51,123,112);"/></g><g transform="matrix(1.82224,0.564521,-0.564521,1.82224,-1667.88,-1345.58)"><ellipse cx="1628.84" cy="674.425" rx="20.968" ry="7.138" style="fill:rgb(51,123,112);"/></g></g></g><g transform="matrix(1,0,0,1,26.9595,-79.6481)"><path d="M728.413,1670.72C728.413,1670.72 730.68,1561.62 816.667,1524.19L1425.22,1697.76C1425.22,1697.76 1336.92,1716.52 1324.56,1843.99L728.413,1670.72Z" style="fill:rgb(230,243,255);"/></g><g transform="matrix(1.22334,0.340701,-0.445381,0.540291,486.231,424.677)"><rect x="821.41" y="1411.76" width="420.984" height="6.352" style="fill:rgb(98,160,219);"/></g><g transform="matrix(39.1512,11.5043,-11.5043,39.1512,-58893.4,-53751.8)"><path d="M1787.82,886.609L1788.11,886.609L1788.11,887.778L1788.82,887.778L1788.82,888.034L1787.82,888.034L1787.82,886.609Z" style="fill:rgb(19,79,123);fill-rule:nonzero;"/><path d="M1789.16,886.758C1789.28,886.641 1789.43,886.582 1789.61,886.582C1789.85,886.582 1790.02,886.661 1790.13,886.818C1790.19,886.906 1790.23,886.995 1790.23,887.084L1789.93,887.084C1789.91,887.015 1789.89,886.964 1789.86,886.929C1789.81,886.867 1789.72,886.836 1789.62,886.836C1789.51,886.836 1789.42,886.88 1789.36,886.967C1789.3,887.055 1789.27,887.178 1789.27,887.338C1789.27,887.498 1789.3,887.617 1789.37,887.697C1789.43,887.777 1789.52,887.816 1789.62,887.816C1789.72,887.816 1789.8,887.782 1789.86,887.714C1789.89,887.677 1789.91,887.622 1789.93,887.549L1790.23,887.549C1790.2,887.704 1790.14,887.83 1790.03,887.928C1789.92,888.025 1789.79,888.074 1789.62,888.074C1789.42,888.074 1789.26,888.008 1789.14,887.876C1789.02,887.744 1788.96,887.563 1788.96,887.333C1788.96,887.084 1789.03,886.893 1789.16,886.758Z" style="fill:rgb(19,79,123);fill-rule:nonzero;"/><path d="M1791.4,886.609L1791.83,886.609L1791.83,888.034L1791.55,888.034L1791.55,887.07C1791.55,887.042 1791.55,887.004 1791.55,886.954C1791.55,886.904 1791.55,886.865 1791.55,886.838L1791.28,888.034L1790.99,888.034L1790.73,886.838C1790.73,886.865 1790.73,886.904 1790.73,886.954C1790.73,887.004 1790.73,887.042 1790.73,887.07L1790.73,888.034L1790.45,888.034L1790.45,886.609L1790.88,886.609L1791.14,887.729L1791.4,886.609Z" style="fill:rgb(19,79,123);fill-rule:nonzero;"/><path d="M1793.07,887.157L1793.07,887.411L1792.02,887.411L1792.02,887.157L1793.07,887.157ZM1793.07,887.609L1793.07,887.863L1792.02,887.863L1792.02,887.609L1793.07,887.609Z" style="fill:rgb(19,79,123);fill-rule:nonzero;"/><path d="M1793.43,887.604C1793.43,887.66 1793.44,887.706 1793.46,887.743C1793.49,887.811 1793.55,887.844 1793.64,887.844C1793.7,887.844 1793.74,887.826 1793.78,887.789C1793.82,887.752 1793.84,887.698 1793.84,887.629C1793.84,887.537 1793.81,887.475 1793.73,887.444C1793.69,887.427 1793.62,887.418 1793.53,887.418L1793.53,887.221C1793.62,887.22 1793.68,887.211 1793.72,887.195C1793.78,887.168 1793.81,887.113 1793.81,887.031C1793.81,886.977 1793.8,886.934 1793.76,886.9C1793.73,886.867 1793.69,886.85 1793.63,886.85C1793.57,886.85 1793.52,886.87 1793.49,886.912C1793.46,886.953 1793.44,887.008 1793.44,887.077L1793.19,887.077C1793.19,887.007 1793.2,886.941 1793.22,886.879C1793.25,886.824 1793.28,886.773 1793.33,886.727C1793.37,886.694 1793.41,886.669 1793.46,886.652C1793.51,886.634 1793.57,886.626 1793.64,886.626C1793.77,886.626 1793.88,886.66 1793.96,886.729C1794.05,886.799 1794.09,886.892 1794.09,887.008C1794.09,887.091 1794.06,887.16 1794.01,887.217C1793.98,887.253 1793.95,887.277 1793.92,887.29C1793.94,887.29 1793.98,887.311 1794.03,887.354C1794.1,887.419 1794.13,887.508 1794.13,887.621C1794.13,887.74 1794.09,887.844 1794.01,887.934C1793.93,888.024 1793.8,888.069 1793.64,888.069C1793.44,888.069 1793.31,888.004 1793.23,887.874C1793.19,887.805 1793.17,887.715 1793.16,887.604L1793.43,887.604Z" style="fill:rgb(19,79,123);fill-rule:nonzero;"/><path d="M1794.76,887.844C1794.84,887.844 1794.89,887.802 1794.92,887.716C1794.94,887.631 1794.95,887.508 1794.95,887.347C1794.95,887.178 1794.94,887.053 1794.92,886.972C1794.89,886.89 1794.84,886.85 1794.76,886.85C1794.67,886.85 1794.62,886.89 1794.59,886.972C1794.57,887.053 1794.55,887.178 1794.55,887.347C1794.55,887.508 1794.57,887.631 1794.59,887.716C1794.62,887.802 1794.67,887.844 1794.76,887.844ZM1795.24,887.347C1795.24,887.578 1795.2,887.756 1795.13,887.881C1795.06,888.006 1794.93,888.069 1794.76,888.069C1794.58,888.069 1794.45,888.006 1794.38,887.881C1794.31,887.756 1794.27,887.578 1794.27,887.347C1794.27,887.115 1794.31,886.937 1794.38,886.811C1794.45,886.685 1794.58,886.623 1794.76,886.623C1794.93,886.623 1795.06,886.685 1795.13,886.811C1795.2,886.937 1795.24,887.115 1795.24,887.347Z" style="fill:rgb(19,79,123);fill-rule:nonzero;"/><path d="M1795.86,887.844C1795.94,887.844 1795.99,887.802 1796.02,887.716C1796.04,887.631 1796.06,887.508 1796.06,887.347C1796.06,887.178 1796.04,887.053 1796.02,886.972C1795.99,886.89 1795.94,886.85 1795.86,886.85C1795.78,886.85 1795.72,886.89 1795.69,886.972C1795.67,887.053 1795.65,887.178 1795.65,887.347C1795.65,887.508 1795.67,887.631 1795.69,887.716C1795.72,887.802 1795.78,887.844 1795.86,887.844ZM1796.34,887.347C1796.34,887.578 1796.3,887.756 1796.23,887.881C1796.16,888.006 1796.04,888.069 1795.86,888.069C1795.68,888.069 1795.55,888.006 1795.48,887.881C1795.41,887.756 1795.37,887.578 1795.37,887.347C1795.37,887.115 1795.41,886.937 1795.48,886.811C1795.55,886.685 1795.68,886.623 1795.86,886.623C1796.04,886.623 1796.16,886.685 1796.23,886.811C1796.3,886.937 1796.34,887.115 1796.34,887.347Z" style="fill:rgb(19,79,123);fill-rule:nonzero;"/></g><g transform="matrix(1.22334,0.340701,-0.445381,0.540291,476.397,436.606)"><rect x="821.41" y="1411.76" width="420.984" height="6.352" style="fill:rgb(98,160,219);"/></g><g transform="matrix(0.806031,0.224479,-0.445381,0.540291,841.169,653.828)"><rect x="821.41" y="1411.76" width="420.984" height="6.352" style="fill:rgb(18,79,123);"/></g><g transform="matrix(1,0,0,1,26.9595,-79.6481)"><path d="M755.302,1593.71C755.302,1593.71 766.2,1543.18 816.667,1524.19L1425.22,1697.76C1425.22,1697.76 1381.34,1705.64 1355.45,1764.99L755.302,1593.71Z" style="fill:url(#_Linear8);"/></g></g></g></g></g></g><defs><linearGradient id="_Linear2" x1="0" y1="0" x2="1" y2="0" gradientUnits="userSpaceOnUse" gradientTransform="matrix(20.7033,-185.195,185.195,20.7033,1571.64,1873.3)"><stop offset="0" style="stop-color:white;stop-opacity:0"/><stop offset="1" style="stop-color:white;stop-opacity:1"/></linearGradient><linearGradient id="_Linear3" x1="0" y1="0" x2="1" y2="0" gradientUnits="userSpaceOnUse" gradientTransform="matrix(-121.204,-1242.79,1242.79,-121.204,1137.51,1675.68)"><stop offset="0" style="stop-color:black;stop-opacity:0"/><stop offset="1" style="stop-color:black;stop-opacity:1"/></linearGradient><linearGradient id="_Linear4" x1="0" y1="0" x2="1" y2="0" gradientUnits="userSpaceOnUse" gradientTransform="matrix(-3.243,1389.33,-1389.33,-3.243,2760.68,1353.9)"><stop offset="0" style="stop-color:rgb(55,140,127);stop-opacity:1"/><stop offset="1" style="stop-color:rgb(16,89,77);stop-opacity:1"/></linearGradient><linearGradient id="_Linear5" x1="0" y1="0" x2="1" y2="0" gradientUnits="userSpaceOnUse" gradientTransform="matrix(-968.605,-1659.65,1659.65,-968.605,1329.51,2044.56)"><stop offset="0" style="stop-color:white;stop-opacity:0"/><stop offset="1" style="stop-color:white;stop-opacity:1"/></linearGradient><linearGradient id="_Linear6" x1="0" y1="0" x2="1" y2="0" gradientUnits="userSpaceOnUse" gradientTransform="matrix(-473.765,-504.711,504.711,-473.765,2281.78,1680.49)"><stop offset="0" style="stop-color:white;stop-opacity:0"/><stop offset="1" style="stop-color:white;stop-opacity:1"/></linearGradient><linearGradient id="_Linear7" x1="0" y1="0" x2="1" y2="0" gradientUnits="userSpaceOnUse" gradientTransform="matrix(280.311,-516.102,607.846,187.917,1206.68,792.855)"><stop offset="0" style="stop-color:white;stop-opacity:0"/><stop offset="1" style="stop-color:white;stop-opacity:1"/></linearGradient><linearGradient id="_Linear8" x1="0" y1="0" x2="1" y2="0" gradientUnits="userSpaceOnUse" gradientTransform="matrix(23.4603,-229.911,229.911,23.4603,1218.22,1736.34)"><stop offset="0" style="stop-color:white;stop-opacity:0"/><stop offset="1" style="stop-color:white;stop-opacity:1"/></linearGradient></defs></svg>